<svg width="45" height="45" viewBox="0 0 45 45" fill="none" xmlns="http://www.w3.org/2000/svg">
<g clip-path="url(#clip0)">
<path d="M41.9572 1.97266H3.04277C1.36494 1.97266 0 3.33769 0 5.01543V30.9169C0 32.5946 1.36494 33.9597 3.04277 33.9597H8.26172C8.62576 33.9597 8.9209 33.6645 8.9209 33.3005C8.9209 32.9364 8.62576 32.6413 8.26172 32.6413H3.04277C2.09197 32.6413 1.31836 31.8677 1.31836 30.9169V28.8718C1.80888 29.2105 2.40293 29.4095 3.04277 29.4095H41.9572C42.5971 29.4095 43.1911 29.2105 43.6816 28.8718V30.9169C43.6816 31.8677 42.908 32.6413 41.9572 32.6413H24.8737C24.872 32.6413 24.8702 32.6413 24.8686 32.6413H20.1318C20.1298 32.6413 20.1277 32.6413 20.1257 32.6413H10.8984C10.5344 32.6413 10.2393 32.9364 10.2393 33.3005C10.2393 33.6645 10.5344 33.9597 10.8984 33.9597H19.1229L17.2229 38.3697H16.0298C14.4613 38.3697 13.1852 39.6457 13.1852 41.2143V41.642C13.1852 42.4057 13.8065 43.0271 14.5702 43.0271H30.4299C31.1936 43.0271 31.815 42.4058 31.815 41.642V41.2143C31.815 39.6457 30.5389 38.3697 28.9704 38.3697H27.7773L25.8773 33.9597H41.9572C43.6351 33.9597 45 32.5946 45 30.9169V5.01543C45 3.33769 43.6351 1.97266 41.9572 1.97266ZM30.4966 41.2143V41.642C30.4966 41.6787 30.4667 41.7087 30.4298 41.7087H14.5702C14.5334 41.7087 14.5034 41.6788 14.5034 41.642V41.2143C14.5034 40.3727 15.1881 39.688 16.0297 39.688H17.6528C17.654 39.688 17.6551 39.6882 17.6563 39.6882C17.6571 39.6882 17.6578 39.688 17.6586 39.688H27.3414C27.3422 39.688 27.3429 39.6882 27.3437 39.6882C27.3449 39.6882 27.346 39.688 27.3472 39.688H28.9703C29.8119 39.688 30.4966 40.3728 30.4966 41.2143ZM26.3417 38.3697H18.6583L20.5583 33.9597H24.4417L26.3417 38.3697ZM41.9572 28.0912H3.04277C2.09197 28.0912 1.31836 27.3176 1.31836 26.3668V5.01543C1.31836 4.06463 2.09197 3.29102 3.04277 3.29102H41.9572C42.908 3.29102 43.6816 4.06463 43.6816 5.01543V26.3667C43.6816 27.3176 42.908 28.0912 41.9572 28.0912Z" fill="#DA2128"/>
<path d="M20.8839 8.4923L21.8413 7.94791V10.2644C21.8413 10.6285 22.1364 10.9236 22.5005 10.9236C22.8645 10.9236 23.1597 10.6285 23.1597 10.2644V7.948L24.1171 8.49239C24.22 8.55093 24.3319 8.5787 24.4424 8.5787C24.6717 8.5787 24.8945 8.45882 25.0159 8.24524C25.1959 7.92875 25.0853 7.5263 24.7688 7.34638C22.6401 6.13622 22.8071 6.22736 22.7411 6.2017C22.5531 6.12787 22.3455 6.14633 22.1785 6.24011C22.1772 6.24081 22.1759 6.24125 22.1747 6.24195L20.2323 7.34647C19.9158 7.52638 19.8051 7.92884 19.9851 8.24533C20.165 8.56165 20.5674 8.67239 20.8839 8.4923Z" fill="#DA2128"/>
<path d="M15.5621 21.1405L13.5555 22.2962V21.2022C13.5555 20.8381 13.2604 20.543 12.8963 20.543C12.5323 20.543 12.2371 20.8381 12.2371 21.2022C12.2375 23.5476 12.1368 23.7687 12.5722 24.0106L14.499 25.1358C14.6035 25.1968 14.7179 25.2258 14.8308 25.2258C15.0575 25.2258 15.2781 25.1087 15.4006 24.8989C15.5842 24.5845 15.4781 24.1809 15.1637 23.9973L14.2103 23.4406L16.2201 22.283C16.5355 22.1014 16.644 21.6983 16.4623 21.3829C16.2806 21.0672 15.8776 20.959 15.5621 21.1405Z" fill="#DA2128"/>
<path d="M32.1043 20.543C31.7402 20.543 31.4451 20.8381 31.4451 21.2021V22.2962L29.4385 21.1405C29.123 20.9589 28.72 21.0673 28.5383 21.3828C28.3566 21.6982 28.4651 22.1013 28.7805 22.2829L30.7903 23.4405L29.8369 23.9972C29.5225 24.1808 29.4164 24.5845 29.6 24.8988C29.7225 25.1087 29.9431 25.2257 30.1698 25.2257C30.2827 25.2257 30.3971 25.1967 30.5016 25.1357C32.2931 24.0594 32.6361 24.0182 32.7426 23.599C32.786 23.4289 32.7495 23.439 32.7634 21.2021C32.7634 20.8381 32.4683 20.543 32.1043 20.543Z" fill="#DA2128"/>
<path d="M27.627 14.5557L22.8295 11.7856C22.6255 11.6678 22.3743 11.6678 22.1703 11.7856L17.3728 14.5557C17.1689 14.6735 17.0432 14.8911 17.0432 15.1266C17.0432 15.1431 17.0452 15.1594 17.0464 15.1757V20.6663C17.0464 20.9019 17.1721 21.1195 17.376 21.2372L22.1229 23.9775C22.1374 23.9875 22.1514 23.998 22.1668 24.0069C22.2687 24.0658 22.3825 24.0952 22.4963 24.0952C22.4975 24.0952 22.4986 24.095 22.4999 24.095C22.5011 24.095 22.5021 24.0952 22.5034 24.0952C22.6172 24.0952 22.731 24.0658 22.833 24.0069C22.8483 23.998 22.8624 23.9875 22.8768 23.9775L27.6237 21.2372C27.8277 21.1195 27.9533 20.9019 27.9533 20.6663V15.1757C27.9545 15.1594 27.9565 15.1431 27.9565 15.1266C27.9566 14.8911 27.831 14.6735 27.627 14.5557ZM22.4999 13.1177L25.9774 15.1255L22.4999 17.1331L19.0225 15.1256L22.4999 13.1177ZM18.3649 16.2702L21.8372 18.2752V22.2904L18.3649 20.2858V16.2702ZM23.1626 22.2904V18.2752L26.635 16.2702V20.2858L23.1626 22.2904Z" fill="#DA2128"/>
<path d="M7.29492 5.77148H4.21875C3.51606 5.77148 2.94434 6.34321 2.94434 7.0459V22.6529C2.94434 23.3556 3.51606 23.9273 4.21875 23.9273H7.29492C7.99761 23.9273 8.56934 23.3556 8.56934 22.6529V7.0459C8.56934 6.34321 7.99761 5.77148 7.29492 5.77148ZM7.25098 22.609H4.2627V7.08984H7.25098V22.609Z" fill="#DA2128"/>
<path d="M5.50696 10.3477H6.00503C6.36908 10.3477 6.66421 10.0525 6.66421 9.68848C6.66421 9.32443 6.36908 9.0293 6.00503 9.0293H5.50696C5.14292 9.0293 4.84778 9.32443 4.84778 9.68848C4.84778 10.0525 5.14283 10.3477 5.50696 10.3477Z" fill="#DA2128"/>
<path d="M5.50696 13.7891H6.00503C6.36908 13.7891 6.66421 13.4939 6.66421 13.1299C6.66421 12.7658 6.36908 12.4707 6.00503 12.4707H5.50696C5.14292 12.4707 4.84778 12.7658 4.84778 13.1299C4.84778 13.4939 5.14283 13.7891 5.50696 13.7891Z" fill="#DA2128"/>
<path d="M5.50696 17.2305H6.00503C6.36908 17.2305 6.66421 16.9353 6.66421 16.5713C6.66421 16.2072 6.36908 15.9121 6.00503 15.9121H5.50696C5.14292 15.9121 4.84778 16.2072 4.84778 16.5713C4.84778 16.9353 5.14283 17.2305 5.50696 17.2305Z" fill="#DA2128"/>
<path d="M5.50696 20.6719H6.00503C6.36908 20.6719 6.66421 20.3767 6.66421 20.0127C6.66421 19.6487 6.36908 19.3535 6.00503 19.3535H5.50696C5.14292 19.3535 4.84778 19.6487 4.84778 20.0127C4.84778 20.3767 5.14283 20.6719 5.50696 20.6719Z" fill="#DA2128"/>
<path d="M41.0059 4.92773H32.5517C31.9459 4.92773 31.4531 5.42054 31.4531 6.02637V13.1939C31.4531 13.7997 31.9459 14.2925 32.5517 14.2925H41.0059C41.6118 14.2925 42.1046 13.7997 42.1046 13.1939V6.02637C42.1046 5.42063 41.6117 4.92773 41.0059 4.92773ZM40.7862 12.9741H32.7715V6.24609H40.7862V12.9741Z" fill="#DA2128"/>
<path d="M34.6688 9.12695H36.6903C37.0543 9.12695 37.3495 8.83182 37.3495 8.46777C37.3495 8.10373 37.0543 7.80859 36.6903 7.80859H34.6688C34.3048 7.80859 34.0096 8.10373 34.0096 8.46777C34.0096 8.83182 34.3047 9.12695 34.6688 9.12695Z" fill="#DA2128"/>
<path d="M34.6688 11.4121H38.8876C39.2516 11.4121 39.5467 11.117 39.5467 10.7529C39.5467 10.3889 39.2516 10.0938 38.8876 10.0938H34.6688C34.3048 10.0938 34.0096 10.3889 34.0096 10.7529C34.0096 11.117 34.3047 11.4121 34.6688 11.4121Z" fill="#DA2128"/>
</g>
<defs>
<clipPath id="clip0">
<rect width="45" height="45" fill="white"/>
</clipPath>
</defs>
</svg>
