<svg width="25" height="25" viewBox="0 0 25 25" fill="none" xmlns="http://www.w3.org/2000/svg">
<path d="M24.5833 0H0.416667C0.186562 0 0 0.186562 0 0.416667C0 0.646771 0.186562 0.833333 0.416667 0.833333H2.08333V2.08333C2.08333 2.31344 2.2699 2.5 2.5 2.5H5V7.08333H4.16667C3.93656 7.08333 3.75 7.2699 3.75 7.5V11.0525C3.74661 11.1958 3.67208 11.328 3.55125 11.405C2.59979 12.0426 2.04479 13.1261 2.08333 14.2708C2.15698 16.0344 3.57833 17.4427 5.3425 17.5H5.41667C7.2576 17.4985 8.7488 16.0049 8.74724 14.164C8.74635 13.0556 8.19453 12.0201 7.275 11.4012C7.15708 11.3245 7.08516 11.194 7.08333 11.0533V7.5C7.08333 7.2699 6.89677 7.08333 6.66667 7.08333H5.83333V2.5H12.0833V14.5833H11.25C11.0199 14.5833 10.8333 14.7699 10.8333 15V18.5525C10.8299 18.6958 10.7554 18.828 10.6346 18.905C9.68313 19.5426 9.12813 20.6261 9.16667 21.7708C9.24031 23.5344 10.6617 24.9427 12.4258 25H12.5C14.3409 24.9985 15.8321 23.5049 15.8306 21.664C15.8297 20.5556 15.2779 19.5201 14.3583 18.9012C14.2404 18.8245 14.1685 18.694 14.1667 18.5533V15C14.1667 14.7699 13.9801 14.5833 13.75 14.5833H12.9167V2.5H19.1667V9.58333H18.3333C18.1032 9.58333 17.9167 9.7699 17.9167 10V13.5525C17.9133 13.6958 17.8387 13.828 17.7179 13.905C16.7665 14.5426 16.2115 15.6261 16.25 16.7708C16.3236 18.5344 17.745 19.9427 19.5092 20H19.5833C21.4243 19.9985 22.9155 18.5049 22.914 16.664C22.9131 15.5556 22.3612 14.5201 21.4417 13.9012C21.3237 13.8245 21.2518 13.694 21.25 13.5533V10C21.25 9.7699 21.0634 9.58333 20.8333 9.58333H20V2.5H22.5C22.7301 2.5 22.9167 2.31344 22.9167 2.08333V0.833333H24.5833C24.8134 0.833333 25 0.646771 25 0.416667C25 0.186562 24.8134 0 24.5833 0ZM6.8125 12.0933C7.5037 12.5567 7.91792 13.3345 7.91667 14.1667C7.91927 14.8395 7.64865 15.4846 7.16667 15.9542C6.69005 16.4328 6.03542 16.691 5.36042 16.6667C4.0375 16.624 2.97161 15.5679 2.91667 14.2454C2.88714 13.3873 3.30255 12.5748 4.01542 12.0962C4.30562 11.9014 4.50214 11.595 4.55833 11.25H6.27458C6.32911 11.5935 6.52396 11.899 6.8125 12.0933ZM6.25 7.91667V10.4167H4.58333V7.91667H6.25ZM13.8958 19.5933C14.587 20.0567 15.0012 20.8345 15 21.6667C15.0026 22.3395 14.732 22.9846 14.25 23.4542C13.7727 23.9317 13.1185 24.1897 12.4437 24.1667C11.1208 24.124 10.0549 23.0679 10 21.7454C9.97047 20.8873 10.3859 20.0748 11.0987 19.5962C11.389 19.4014 11.5855 19.095 11.6417 18.75H13.3579C13.4124 19.0935 13.6073 19.399 13.8958 19.5933ZM13.3333 15.4167V17.9167H11.6667V15.4167H13.3333ZM20.9792 14.5933C21.6704 15.0567 22.0846 15.8345 22.0833 16.6667C22.0859 17.3395 21.8153 17.9846 21.3333 18.4542C20.8553 18.9306 20.2017 19.1885 19.5271 19.1667C18.2042 19.124 17.1383 18.0679 17.0833 16.7454C17.0538 15.8873 17.4692 15.0748 18.1821 14.5962C18.4723 14.4014 18.6688 14.095 18.725 13.75H20.4412C20.4958 14.0935 20.6906 14.399 20.9792 14.5933ZM20.4167 10.4167V12.9167H18.75V10.4167H20.4167ZM22.0833 1.66667H2.91667V0.833333H22.0833V1.66667Z"/>
</svg>
