<svg width="25" height="19" viewBox="0 0 25 19" fill="none" xmlns="http://www.w3.org/2000/svg">
<path d="M24.2188 13.7969H23.8281V10.6719C23.8276 10.2576 23.6628 9.86053 23.3699 9.56762C23.077 9.27471 22.6799 9.10992 22.2656 9.10938V2.46875C22.2651 2.05452 22.1003 1.6574 21.8074 1.36449C21.5145 1.07159 21.1174 0.906793 20.7031 0.90625H4.29688C3.88264 0.906793 3.48553 1.07159 3.19262 1.36449C2.89971 1.6574 2.73492 2.05452 2.73438 2.46875V9.10938C2.32014 9.10992 1.92303 9.27471 1.63012 9.56762C1.33721 9.86053 1.17242 10.2576 1.17188 10.6719V13.7969H0.78125C0.67765 13.7969 0.578293 13.838 0.505036 13.9113C0.43178 13.9845 0.390625 14.0839 0.390625 14.1875V15.75C0.390625 15.8536 0.43178 15.953 0.505036 16.0262C0.578293 16.0995 0.67765 16.1406 0.78125 16.1406H1.17188V17.7031C1.17188 17.8067 1.21303 17.9061 1.28629 17.9793C1.35954 18.0526 1.4589 18.0938 1.5625 18.0938H2.73438C2.82466 18.0938 2.91216 18.0625 2.98196 18.0053C3.05177 17.948 3.09956 17.8683 3.11719 17.7798L3.44531 16.1406H21.5547L21.8828 17.7798C21.9004 17.8683 21.9482 17.948 22.018 18.0053C22.0878 18.0625 22.1753 18.0938 22.2656 18.0938H23.4375C23.5411 18.0938 23.6405 18.0526 23.7137 17.9793C23.787 17.9061 23.8281 17.8067 23.8281 17.7031V16.1406H24.2188C24.3223 16.1406 24.4217 16.0995 24.495 16.0262C24.5682 15.953 24.6094 15.8536 24.6094 15.75V14.1875C24.6094 14.0839 24.5682 13.9845 24.495 13.9113C24.4217 13.838 24.3223 13.7969 24.2188 13.7969ZM3.51562 2.46875C3.5159 2.26163 3.59829 2.06308 3.74475 1.91662C3.8912 1.77017 4.08976 1.68777 4.29688 1.6875H20.7031C20.9102 1.68777 21.1088 1.77017 21.2553 1.91662C21.4017 2.06308 21.4841 2.26163 21.4844 2.46875V9.10938H20.7031V7.54688C20.7026 7.13264 20.5378 6.73553 20.2449 6.44262C19.952 6.14971 19.5549 5.98492 19.1406 5.98438H14.4531C14.0389 5.98492 13.6418 6.14971 13.3489 6.44262C13.056 6.73553 12.8912 7.13264 12.8906 7.54688V9.10938H12.1094V7.54688C12.1088 7.13264 11.944 6.73553 11.6511 6.44262C11.3582 6.14971 10.9611 5.98492 10.5469 5.98438H5.85938C5.44514 5.98492 5.04803 6.14971 4.75512 6.44262C4.46221 6.73553 4.29742 7.13264 4.29688 7.54688V9.10938H3.51562V2.46875ZM19.9219 7.54688V9.10938H13.6719V7.54688C13.6721 7.33976 13.7545 7.1412 13.901 6.99475C14.0475 6.84829 14.246 6.7659 14.4531 6.76562H19.1406C19.3477 6.7659 19.5463 6.84829 19.6928 6.99475C19.8392 7.1412 19.9216 7.33976 19.9219 7.54688ZM11.3281 7.54688V9.10938H5.07812V7.54688C5.0784 7.33976 5.16079 7.1412 5.30725 6.99475C5.4537 6.84829 5.65226 6.7659 5.85938 6.76562H10.5469C10.754 6.7659 10.9525 6.84829 11.099 6.99475C11.2455 7.1412 11.3279 7.33976 11.3281 7.54688ZM1.95312 10.6719C1.9534 10.4648 2.03579 10.2662 2.18225 10.1197C2.3287 9.97329 2.52726 9.8909 2.73438 9.89062H22.2656C22.4727 9.8909 22.6713 9.97329 22.8178 10.1197C22.9642 10.2662 23.0466 10.4648 23.0469 10.6719V13.7969H1.95312V10.6719ZM2.41406 17.3125H1.95312V16.1406H2.64844L2.41406 17.3125ZM23.0469 17.3125H22.5859L22.3516 16.1406H23.0469V17.3125ZM23.8281 15.3594H1.17188V14.5781H23.8281V15.3594Z" />
</svg>
