<svg width="45" height="45" viewBox="0 0 45 45" fill="none" xmlns="http://www.w3.org/2000/svg">
<g clip-path="url(#clip0)">
<path d="M17.7841 37.608C17.7841 37.2442 18.0781 36.9477 18.4418 36.9477C18.8055 36.9477 19.1021 37.2442 19.1021 37.608V43.3184L21.292 42.3168C21.4714 42.2345 21.6707 42.242 21.8377 42.3168L24.6879 43.6198L27.538 42.3168C27.7174 42.2345 27.9167 42.242 28.0836 42.3168L30.9338 43.6198L33.784 42.3168C33.9634 42.2345 34.1627 42.242 34.3296 42.3168L37.1798 43.6198L40.03 42.3168C40.2093 42.2345 40.4088 42.242 40.5757 42.3168L42.7656 43.3184V4.87573C42.7656 3.89417 42.367 3.00472 41.7242 2.3618C41.0789 1.71659 40.1896 1.31792 39.2079 1.31792H17.5599C18.5465 2.24473 19.1021 3.52283 19.1021 4.87564V34.6207C19.1021 34.9845 18.8056 35.281 18.4418 35.281C18.078 35.281 17.7841 34.9845 17.7841 34.6207V29.1122H5.79049C4.44506 29.1122 3.22681 28.5666 2.34237 27.6847C1.46039 26.8027 0.914761 25.5818 0.914761 24.2365V20.8906C0.914761 20.5244 1.21122 20.2303 1.575 20.2303C1.93877 20.2303 2.23277 20.5244 2.23277 20.8906V24.2365C2.23277 25.2181 2.63144 26.1076 3.27665 26.7529C3.91948 27.3957 4.80884 27.7944 5.79049 27.7944C6.7746 27.7944 7.66397 27.3958 8.3068 26.7529C8.94955 26.1076 9.34822 25.2181 9.34822 24.2365V15.2151H2.23268V17.9033C2.23268 18.2671 1.93869 18.5636 1.57491 18.5636C1.21113 18.5636 0.914673 18.2671 0.914673 17.9033V14.5573C0.914673 14.1912 1.21113 13.8971 1.57491 13.8971H9.34813V10.1699C9.34813 9.80613 9.64467 9.50968 10.0085 9.50968C10.3721 9.50968 10.6661 9.80613 10.6661 10.1699V24.2365C10.6661 25.5819 10.1205 26.8027 9.23853 27.6847C9.20118 27.722 9.16374 27.7568 9.12647 27.7943H17.7841V4.87573C17.7841 3.89417 17.3855 3.00472 16.7402 2.3618C16.0973 1.71659 15.208 1.31792 14.2263 1.31792C13.2422 1.31792 12.3528 1.71659 11.71 2.3618C11.0647 3.00463 10.6661 3.89408 10.6661 4.87573V7.18286C10.6661 7.54901 10.3721 7.8431 10.0085 7.8431C9.64467 7.8431 9.34813 7.54901 9.34813 7.18286V4.87573C9.34813 3.5303 9.89375 2.31205 10.7782 1.4277C11.6602 0.545625 12.8785 0 14.2263 0H39.2077C40.5532 0 41.7739 0.545625 42.6559 1.42761C43.5378 2.31205 44.0835 3.5303 44.0835 4.87564V44.3422C44.0835 44.8106 43.5877 45.1369 43.1517 44.9401L40.3014 43.6372L37.4512 44.9377C37.2843 45.0149 37.0876 45.0224 36.9056 44.9401L34.0554 43.6372L31.2078 44.9377C31.0384 45.0149 30.8415 45.0224 30.6597 44.9401L27.8095 43.6372L24.9618 44.9377C24.7949 45.0149 24.5956 45.0224 24.4136 44.9401L21.566 43.6372L18.7681 44.9153C18.671 44.97 18.5613 45 18.4417 45C18.078 45 17.784 44.706 17.784 44.3423V37.608H17.7841ZM22.1366 33.5569H25.9759C26.3396 33.5569 26.6336 33.8534 26.6336 34.2172V38.0565C26.6336 38.4202 26.3396 38.7141 25.9759 38.7141H22.1366C21.7728 38.7141 21.4763 38.4202 21.4763 38.0565V34.2172C21.4764 33.8534 21.7729 33.5569 22.1366 33.5569ZM25.3157 34.8749H22.7943V37.3962H25.3157V34.8749ZM22.1366 26.7329H25.9759C26.3396 26.7329 26.6336 27.027 26.6336 27.3907V31.2299C26.6336 31.5937 26.3396 31.8901 25.9759 31.8901H22.1366C21.7728 31.8901 21.4763 31.5937 21.4763 31.2299V27.3907C21.4764 27.027 21.7729 26.7329 22.1366 26.7329ZM25.3157 28.0509H22.7943V30.5722H25.3157V28.0509ZM22.1366 19.9064H25.9759C26.3396 19.9064 26.6336 20.2029 26.6336 20.5667V24.406C26.6336 24.7698 26.3396 25.0637 25.9759 25.0637H22.1366C21.7728 25.0637 21.4763 24.7698 21.4763 24.406V20.5667C21.4764 20.2029 21.7729 19.9064 22.1366 19.9064ZM25.3157 21.2244H22.7943V23.7458H25.3157V21.2244ZM28.5022 37.9891C28.1384 37.9891 27.8444 37.6951 27.8444 37.3314C27.8444 36.9676 28.1384 36.6711 28.5022 36.6711H38.1241C38.4878 36.6711 38.7843 36.9676 38.7843 37.3314C38.7843 37.6951 38.4878 37.9891 38.1241 37.9891H28.5022ZM28.5022 35.6024C28.1384 35.6024 27.8444 35.3059 27.8444 34.9421C27.8444 34.5784 28.1384 34.2819 28.5022 34.2819H40.2567C40.6205 34.2819 40.9169 34.5784 40.9169 34.9421C40.9169 35.3059 40.6205 35.6024 40.2567 35.6024H28.5022ZM28.5022 31.1651C28.1384 31.1651 27.8444 30.8687 27.8444 30.5049C27.8444 30.1411 28.1384 29.8472 28.5022 29.8472H38.1241C38.4878 29.8472 38.7843 30.1412 38.7843 30.5049C38.7843 30.8687 38.4878 31.1651 38.1241 31.1651H28.5022ZM28.5022 28.7758C28.1384 28.7758 27.8444 28.4818 27.8444 28.1156C27.8444 27.7518 28.1384 27.4579 28.5022 27.4579H40.2567C40.6205 27.4579 40.9169 27.7519 40.9169 28.1156C40.9169 28.4818 40.6205 28.7758 40.2567 28.7758H28.5022ZM28.5022 24.3387C28.1384 24.3387 27.8444 24.0446 27.8444 23.681C27.8444 23.3172 28.1384 23.0207 28.5022 23.0207H38.1241C38.4878 23.0207 38.7843 23.3172 38.7843 23.681C38.7843 24.0447 38.4878 24.3387 38.1241 24.3387H28.5022ZM28.5022 21.9494C28.1384 21.9494 27.8444 21.6554 27.8444 21.2917C27.8444 20.9279 28.1384 20.6314 28.5022 20.6314H40.2567C40.6205 20.6314 40.9169 20.9279 40.9169 21.2917C40.9169 21.6555 40.6205 21.9494 40.2567 21.9494H28.5022ZM30.286 3.52283C30.286 3.15905 30.58 2.86515 30.9463 2.86515C31.31 2.86515 31.604 3.15914 31.604 3.52283V4.26788C32.7574 4.42731 33.4576 5.07261 33.4601 5.07516C33.7316 5.31677 33.7541 5.73284 33.51 6.00442C33.2658 6.27346 32.8497 6.29587 32.5807 6.05417C32.5781 6.05171 32.2244 5.72537 31.6041 5.59828V9.0987C31.8159 9.18097 32.0401 9.26068 32.2742 9.34532C33.3256 9.71666 33.9608 10.4266 34.2399 11.2463C34.4193 11.7696 34.4467 12.3326 34.3445 12.8733C34.2424 13.4089 34.0107 13.9271 33.6693 14.3706C33.186 14.9959 32.4809 15.4743 31.604 15.6387V16.5232C31.604 16.887 31.31 17.1809 30.9463 17.1809C30.58 17.1809 30.286 16.8869 30.286 16.5232V15.691C29.9671 15.6761 29.6831 15.6412 29.3991 15.5714C28.9208 15.4543 28.4774 15.2451 27.9118 14.8764C27.6078 14.677 27.5231 14.2685 27.7225 13.9645C27.9218 13.6606 28.3304 13.5758 28.6344 13.7752C29.0703 14.0592 29.3918 14.2162 29.7156 14.2959C29.89 14.3382 30.0744 14.3632 30.2861 14.3757V9.98323C29.7629 9.75146 29.2373 9.47988 28.7863 9.12612C28.4101 8.82967 28.1584 8.43354 28.0239 7.99005C27.8943 7.56158 27.8769 7.08812 27.9691 6.62722C28.0588 6.17124 28.2631 5.71535 28.5521 5.3492C28.8859 4.92311 29.3443 4.58191 29.9224 4.40982C30.0469 4.37247 30.1665 4.34013 30.286 4.31763V3.52283ZM31.604 10.5013V14.2858C32.0325 14.1513 32.3788 13.8921 32.6304 13.5658C32.8447 13.2893 32.9867 12.9654 33.0515 12.6316C33.1138 12.3051 33.0964 11.9739 32.9942 11.6699C32.7575 10.9796 32.2343 10.7306 31.604 10.5013ZM30.286 8.52565V5.67545C29.9946 5.76519 29.7604 5.94202 29.586 6.16122C29.4191 6.37304 29.3144 6.6172 29.2621 6.88122C29.2123 7.1354 29.2173 7.3894 29.2871 7.61616C29.3444 7.80803 29.4465 7.97493 29.5935 8.08954C29.7852 8.23913 30.0145 8.38362 30.286 8.52565Z" fill="#DA2128"/>
</g>
<defs>
<clipPath id="clip0">
<rect width="45" height="45" fill="white"/>
</clipPath>
</defs>
</svg>
