<svg width="30" height="30" viewBox="0 0 30 30" fill="none" xmlns="http://www.w3.org/2000/svg">
<path d="M28.125 14.5312H22.9688V0.9375C22.9688 0.67875 22.7592 0.46875 22.5 0.46875H6.5625C6.43781 0.46875 6.31875 0.517969 6.23109 0.606094L0.606094 6.23109C0.517969 6.31875 0.46875 6.43828 0.46875 6.5625V29.0625C0.46875 29.3213 0.678281 29.5312 0.9375 29.5312H22.5C22.7592 29.5312 22.9688 29.3213 22.9688 29.0625V27.6562H28.125C28.9003 27.6562 29.5312 27.0253 29.5312 26.25V15.9375C29.5312 15.1622 28.9003 14.5312 28.125 14.5312ZM28.5938 15.9375V16.4062H11.7188V15.9375C11.7188 15.6792 11.9288 15.4688 12.1875 15.4688H28.125C28.3838 15.4688 28.5938 15.6792 28.5938 15.9375ZM11.7188 17.3438H28.5938V19.2188H11.7188V17.3438ZM6.09375 2.06906V6.09375H2.06906L6.09375 2.06906ZM22.0312 28.5938H1.40625V7.03125H6.5625C6.82172 7.03125 7.03125 6.82125 7.03125 6.5625V1.40625H22.0312V14.5312H12.1875C11.4122 14.5312 10.7812 15.1622 10.7812 15.9375V26.25C10.7812 27.0253 11.4122 27.6562 12.1875 27.6562H22.0312V28.5938ZM28.125 26.7188H12.1875C11.9288 26.7188 11.7188 26.5083 11.7188 26.25V20.1562H28.5938V26.25C28.5938 26.5083 28.3838 26.7188 28.125 26.7188Z"  />
<path d="M17.3062 23.0616C17.3316 23.1844 17.3438 23.3105 17.3438 23.4375C17.3438 24.4716 16.5028 25.3125 15.4688 25.3125C14.4347 25.3125 13.5938 24.4716 13.5938 23.4375C13.5938 22.4034 14.4347 21.5625 15.4688 21.5625C15.7298 21.5625 15.982 21.615 16.2187 21.7186L16.5938 20.8594C16.2384 20.7038 15.8597 20.625 15.4688 20.625C13.9177 20.625 12.6562 21.8864 12.6562 23.4375C12.6562 24.9886 13.9177 26.25 15.4688 26.25C17.0198 26.25 18.2812 24.9886 18.2812 23.4375C18.2812 23.2486 18.2625 23.0592 18.2255 22.8759L17.3062 23.0616Z"  />
<path d="M14.9215 22.708L14.1415 23.2278L15.079 24.6341C15.1648 24.762 15.3073 24.8403 15.461 24.8427H15.469C15.6199 24.8427 15.7624 24.7695 15.8501 24.6462L18.1938 21.365L17.4312 20.8203L15.4821 23.5489L14.9215 22.708Z"  />
<path d="M25.7812 22.0312C25.5323 22.0312 25.2956 22.0823 25.0781 22.1705C24.8606 22.0823 24.6239 22.0312 24.375 22.0312C23.3409 22.0312 22.5 22.8722 22.5 23.9062C22.5 24.9403 23.3409 25.7812 24.375 25.7812C24.6239 25.7812 24.8606 25.7302 25.0781 25.642C25.2956 25.7302 25.5323 25.7812 25.7812 25.7812C26.8153 25.7812 27.6562 24.9403 27.6562 23.9062C27.6562 22.8722 26.8153 22.0312 25.7812 22.0312ZM24.8438 23.9062C24.8438 23.6705 24.9342 23.4577 25.0781 23.2927C25.222 23.4577 25.3125 23.6705 25.3125 23.9062C25.3125 24.142 25.222 24.3548 25.0781 24.5198C24.9342 24.3548 24.8438 24.142 24.8438 23.9062ZM23.4375 23.9062C23.4375 23.467 23.7422 23.1 24.1505 22.9987C23.9995 23.2692 23.9062 23.5753 23.9062 23.9062C23.9062 24.2372 23.9995 24.5433 24.1505 24.8138C23.7422 24.7125 23.4375 24.3455 23.4375 23.9062ZM26.0058 24.8138C26.1567 24.5433 26.25 24.2372 26.25 23.9062C26.25 23.5753 26.1567 23.2692 26.0058 22.9987C26.4141 23.1 26.7188 23.467 26.7188 23.9062C26.7188 24.3455 26.4141 24.7125 26.0058 24.8138Z"  />
<path d="M15.4688 13.5938C18.5705 13.5938 21.0938 11.0705 21.0938 7.96875C21.0938 4.86703 18.5705 2.34375 15.4688 2.34375C12.367 2.34375 9.84375 4.86703 9.84375 7.96875C9.84375 11.0705 12.367 13.5938 15.4688 13.5938ZM15.4688 3.28125C18.0534 3.28125 20.1562 5.38406 20.1562 7.96875C20.1562 10.5534 18.0534 12.6562 15.4688 12.6562C12.8841 12.6562 10.7812 10.5534 10.7812 7.96875C10.7812 5.38406 12.8841 3.28125 15.4688 3.28125Z"  />
<path d="M15.4688 10.3125C14.9517 10.3125 14.5312 9.89203 14.5312 9.375H13.5938C13.5938 10.2459 14.1933 10.9739 15 11.1834V12.1875H15.9375V11.1834C16.7442 10.9739 17.3438 10.2459 17.3438 9.375C17.3438 8.34094 16.5028 7.5 15.4688 7.5C14.9517 7.5 14.5312 7.07953 14.5312 6.5625C14.5312 6.04547 14.9517 5.625 15.4688 5.625C15.9858 5.625 16.4062 6.04547 16.4062 6.5625H17.3438C17.3438 5.69156 16.7442 4.96359 15.9375 4.75406V3.75H15V4.75406C14.1933 4.96359 13.5938 5.69156 13.5938 6.5625C13.5938 7.59656 14.4347 8.4375 15.4688 8.4375C15.9858 8.4375 16.4062 8.85797 16.4062 9.375C16.4062 9.89203 15.9858 10.3125 15.4688 10.3125Z"  />
<path d="M8.90625 12.6562H9.84375V13.5938H8.90625V12.6562Z" />
<path d="M2.34375 12.6562H7.96875V13.5938H2.34375V12.6562Z" />
<path d="M2.34375 10.7812H3.28125V11.7188H2.34375V10.7812Z"  />
<path d="M4.21875 10.7812H9.84375V11.7188H4.21875V10.7812Z"  />
<path d="M8.90625 26.7188H9.84375V27.6562H8.90625V26.7188Z"  />
<path d="M2.34375 26.7188H7.96875V27.6562H2.34375V26.7188Z"  />
<path d="M2.34375 24.8438H3.28125V25.7812H2.34375V24.8438Z"  />
<path d="M4.21875 24.8438H9.84375V25.7812H4.21875V24.8438Z"  />
</svg>
