<svg width="45" height="45" viewBox="0 0 45 45" fill="none" xmlns="http://www.w3.org/2000/svg">
<path d="M29.4381 12.1113H7.88825C7.52262 12.1113 7.22626 12.4077 7.22626 12.7733C7.22626 13.1389 7.52262 13.4353 7.88825 13.4353H29.4382C29.8038 13.4353 30.1001 13.1389 30.1001 12.7733C30.1001 12.4077 29.8037 12.1113 29.4381 12.1113Z" fill="#DA2128"/>
<path d="M7.88825 8.84352H18.6631C19.0287 8.84352 19.3251 8.54715 19.3251 8.18152C19.3251 7.8159 19.0287 7.51953 18.6631 7.51953H7.88825C7.52262 7.51953 7.22626 7.8159 7.22626 8.18152C7.22626 8.54724 7.52262 8.84352 7.88825 8.84352Z" fill="#DA2128"/>
<path d="M29.4381 16.1797H7.88825C7.52262 16.1797 7.22626 16.4761 7.22626 16.8417C7.22626 17.2073 7.52262 17.5037 7.88825 17.5037H29.4382C29.8038 17.5037 30.1001 17.2073 30.1001 16.8417C30.1001 16.4761 29.8037 16.1797 29.4381 16.1797Z" fill="#DA2128"/>
<path d="M12.798 40.4005H5.9015C4.76956 40.4005 3.84855 39.4796 3.84855 38.3476V3.37685C3.84855 2.2449 4.76956 1.3239 5.9015 1.3239H25.7697C25.8339 1.3239 25.8971 1.32979 25.9596 1.33822V5.4668C25.9596 7.32885 27.4744 8.84364 29.3364 8.84364H33.4649C33.4734 8.90622 33.4792 8.96941 33.4792 9.03357V20.3065C33.4792 20.6721 33.7756 20.9685 34.1412 20.9685C34.5068 20.9685 34.8032 20.6721 34.8032 20.3065V9.03366C34.8032 8.30751 34.5204 7.62478 34.0069 7.11123L27.692 0.796289C27.1785 0.282832 26.4959 0 25.7697 0H5.9015C4.03945 0 2.52466 1.51488 2.52466 3.37685V38.3476C2.52466 40.2096 4.03954 41.7244 5.9015 41.7244H12.798C13.1636 41.7244 13.46 41.428 13.46 41.0624C13.46 40.6968 13.1636 40.4005 12.798 40.4005ZM32.5431 7.51975H29.3365C28.2045 7.51975 27.2835 6.59874 27.2835 5.4668V2.2602L32.5431 7.51975Z" fill="#DA2128"/>
<path d="M42.2707 32.4086L36.6617 22.941C36.2529 22.2508 35.3633 22.0226 34.6726 22.4317L33.3083 23.2401C32.2493 23.8674 31.8017 25.137 32.1653 26.2621C31.7056 26.4286 31.2016 26.426 30.7376 26.2466C29.6604 25.9077 28.8414 25.2259 27.4889 25.568C25.1923 26.1527 25.2621 26.1235 25.0543 26.1947C23.7096 25.4291 22.9012 25.2012 21.4737 25.7535L20.2012 26.2454C19.6121 26.473 18.963 26.4191 18.4186 26.0965L18.0713 25.8918C18.2408 24.8765 17.7905 23.805 16.8371 23.2402C16.8371 23.2402 16.8371 23.2402 16.837 23.2401L15.4727 22.4319C14.784 22.024 13.8918 22.2523 13.4838 22.941L7.87458 32.4087C7.4658 33.0988 7.69326 33.9887 8.38373 34.3977L9.74797 35.2059C10.1608 35.4505 10.6145 35.5668 11.0627 35.5668C11.5626 35.5668 12.0554 35.422 12.4767 35.1491L12.761 35.3169L12.1607 36.153C11.4454 37.1495 11.6727 38.5352 12.6694 39.2506C13.1303 39.5815 13.7093 39.7325 14.3081 39.6385C14.4031 40.1939 14.7074 40.7137 15.2001 41.0675C15.6628 41.3997 16.2392 41.551 16.8391 41.4565C16.9343 42.0115 17.2384 42.5308 17.7309 42.8844C18.3927 43.3594 19.2155 43.4144 19.9012 43.1215C20.0512 43.5112 20.312 43.8631 20.6758 44.1244C21.6257 44.8061 22.9342 44.6283 23.6723 43.745L25.2675 44.69C26.3225 45.3152 27.6836 44.9678 28.3092 43.9116C28.4691 43.6416 28.5683 43.3473 28.6046 43.0449L28.6082 43.0471C29.6616 43.6709 31.0259 43.3216 31.6499 42.2685C31.8306 41.9635 31.9296 41.6326 31.9537 41.301C32.8822 41.5344 33.8941 41.1444 34.4065 40.2796C34.5746 39.9959 34.6721 39.6894 34.7042 39.381C35.6993 39.7715 36.8623 39.3941 37.4243 38.4456C37.7265 37.9354 37.8121 37.3381 37.665 36.7635C37.5809 36.4348 37.4262 36.1364 37.2139 35.8844L38.0931 35.3707C38.837 35.676 39.6858 35.6272 40.3972 35.2058L41.7613 34.3976C42.4517 33.9889 42.6798 33.0992 42.2707 32.4086ZM10.4228 34.0669L9.05856 33.2586C8.99791 33.2227 8.97779 33.1441 9.01364 33.0834L14.6228 23.6156C14.6589 23.5547 14.7378 23.5349 14.7981 23.5708L16.1622 24.3789C16.7684 24.7381 16.9581 25.5156 16.6055 26.1107L12.1546 33.6236C11.7993 34.2234 11.0226 34.4221 10.4228 34.0669ZM13.4414 38.1751C13.0394 37.8865 12.9475 37.3273 13.2363 36.9251L14.1186 35.6961C14.3997 35.3045 14.9598 35.1974 15.3686 35.4909C15.7698 35.7789 15.8618 36.3395 15.5739 36.7408L14.6915 37.9698C14.4034 38.3712 13.8424 38.463 13.4414 38.1751ZM15.9722 39.9921C15.571 39.704 15.479 39.1432 15.767 38.742L16.6493 37.513C16.6493 37.513 16.6493 37.513 16.6493 37.513C16.6493 37.513 16.6493 37.5129 16.6494 37.5129L17.6231 36.1565C17.7627 35.9622 17.9695 35.8337 18.2056 35.795C18.2546 35.787 18.3038 35.783 18.3526 35.783C18.5384 35.783 18.7191 35.8408 18.8731 35.9513C19.0674 36.0909 19.1959 36.2976 19.2345 36.5337C19.2733 36.7698 19.2178 37.0069 19.0783 37.2012L17.2221 39.7868C16.9336 40.1889 16.3744 40.2809 15.9722 39.9921ZM18.503 41.8089C18.102 41.5209 18.0099 40.9606 18.2974 40.5594C18.2974 40.5592 18.2976 40.5591 18.2977 40.5589L20.1539 37.9734C20.4417 37.5723 21.0028 37.4802 21.4038 37.7681C21.8051 38.0561 21.8971 38.6169 21.6091 39.0181L20.7844 40.1669C20.7844 40.1669 20.7844 40.1669 20.7843 40.167L19.7529 41.6037C19.4649 42.0049 18.9043 42.0971 18.503 41.8089ZM21.4479 43.0488C21.0469 42.7609 20.9547 42.2008 21.242 41.7996L21.8598 40.9391C22.1478 40.5378 22.7088 40.446 23.1098 40.7339C23.5109 41.0218 23.6031 41.5826 23.315 41.9839L22.6978 42.8435C22.4098 43.2448 21.8489 43.3369 21.4479 43.0488ZM36.2855 37.7708C36.0336 38.196 35.483 38.3369 35.0578 38.0851C34.3378 37.6586 29.6933 34.907 29.1982 34.6136C28.8835 34.4273 28.4776 34.5311 28.2912 34.8457C28.1049 35.1602 28.2087 35.5663 28.5233 35.7526L32.9532 38.3771L32.9533 38.3772C33.3786 38.6291 33.5205 39.178 33.2676 39.6049C33.0156 40.0302 32.4648 40.1709 32.0398 39.9193C30.4013 38.9487 29.0709 38.1604 27.6074 37.2934C27.2927 37.1071 26.8868 37.2109 26.7005 37.5254C26.5142 37.84 26.618 38.2461 26.9325 38.4324L30.1966 40.3662L30.1973 40.3666C30.6229 40.6193 30.7633 41.1679 30.511 41.594C30.259 42.0193 29.7084 42.1602 29.2831 41.9083L27.5313 40.8706C27.5311 40.8705 27.5309 40.8704 27.5307 40.8702C27.5305 40.8701 27.5304 40.87 27.5302 40.8699L26.2518 40.1125C25.9372 39.9261 25.5312 40.0299 25.3449 40.3445C25.1585 40.6591 25.2623 41.0651 25.5769 41.2515L26.8555 42.009C26.8557 42.0091 26.8559 42.0093 26.8561 42.0094C27.2814 42.2612 27.4232 42.81 27.1704 43.237C26.9184 43.6623 26.3677 43.8032 25.9424 43.5513L24.4508 42.6677C25.0902 41.6811 24.8471 40.3515 23.8819 39.6587C23.5985 39.4553 23.2829 39.3287 22.96 39.2743C23.3025 38.3587 23.0072 37.2898 22.1759 36.693C21.6837 36.3395 21.0944 36.2175 20.5382 36.3046C20.4392 35.7259 20.1228 35.2189 19.6452 34.8762C18.7472 34.2317 17.5267 34.3556 16.7729 35.1182C16.6197 34.8492 16.4082 34.6078 16.1407 34.4158C15.3944 33.8802 14.4255 33.8752 13.6867 34.3263L13.3834 34.1473L17.5468 27.1196L17.745 27.2365C18.6204 27.7551 19.6886 27.8632 20.6786 27.4803L21.9511 26.9884C22.6792 26.707 23.0808 26.6886 23.8011 27.0285C23.3298 27.5579 23.05 28.2531 23.05 29.0022V31.9374C23.05 32.7169 23.6838 33.3516 24.4628 33.3521H24.4647C25.2461 33.3521 25.9808 33.0479 26.5336 32.4955C26.8558 32.1735 27.0936 31.7896 27.2362 31.3705C28.0909 31.8767 35.1527 36.0585 35.9714 36.5435C36.1773 36.6655 36.3234 36.8604 36.3827 37.0922C36.442 37.3238 36.4075 37.5649 36.2855 37.7708ZM41.0868 33.2586L39.7225 34.0669C39.1227 34.422 38.3459 34.2231 37.9908 33.6237L35.9047 30.1024C35.7182 29.7878 35.312 29.684 34.9977 29.8702C34.6832 30.0565 34.5793 30.4625 34.7655 30.7771L36.8517 34.2985C36.891 34.3648 36.9336 34.4278 36.9777 34.4893L36.3977 34.8281C36.2805 34.8975 36.1677 34.974 36.0599 35.057L27.0666 29.7313C26.626 29.4705 26.0674 29.7884 26.0674 30.3008C26.0605 30.3404 26.1358 31.0208 25.5976 31.5588C25.2949 31.8612 24.8926 32.0279 24.4646 32.0279C24.4643 32.0279 24.4639 32.0279 24.4636 32.0279C24.4141 32.0279 24.3738 31.9871 24.3738 31.937V29.0019C24.3738 28.2351 24.9014 27.5883 25.6148 27.4076L27.8134 26.8512C28.6112 26.6496 29.0622 27.0756 30.2567 27.4799C31.086 27.8007 31.9876 27.7809 32.788 27.4391L33.1875 28.1136C33.3739 28.4283 33.78 28.532 34.0945 28.3458C34.409 28.1595 34.5129 27.7534 34.3267 27.4388L33.5397 26.1106C33.1837 25.5096 33.382 24.7351 33.9829 24.3788L35.3472 23.5707C35.4068 23.5353 35.4856 23.5534 35.5225 23.6156L41.1315 33.0833C41.1677 33.1444 41.1478 33.2225 41.0868 33.2586Z" fill="#DA2128"/>
</svg>
