<svg width="30" height="30" viewBox="0 0 30 30" fill="none" xmlns="http://www.w3.org/2000/svg">
<path d="M27.5 3.75H2.50002C1.12184 3.75 0 4.87119 0 6.25002V23.75C0 25.1288 1.12184 26.25 2.50002 26.25H27.5C28.8782 26.25 30 25.1288 30 23.75V6.25002C30 4.87119 28.8782 3.75 27.5 3.75ZM28.75 23.75C28.75 24.439 28.1897 25 27.5 25H2.50002C1.81031 25 1.25004 24.439 1.25004 23.75V12.5H28.75V23.75ZM28.75 11.25H1.24998V8.74998H28.75V11.25H28.75ZM28.75 7.5H1.24998V6.25002C1.24998 5.56096 1.81031 5.00004 2.49996 5.00004H27.5C28.1897 5.00004 28.75 5.56096 28.75 6.25002V7.5H28.75Z" />
<path d="M18.75 22.5C19.4116 22.5 20.0512 22.3236 20.625 21.9867C21.1988 22.3236 21.8384 22.5 22.5 22.5C24.5679 22.5 26.25 20.8179 26.25 18.75C26.25 16.6821 24.5679 15 22.5 15C21.8384 15 21.1988 15.1764 20.625 15.5133C20.0512 15.1764 19.4116 15 18.75 15C16.6821 15 15 16.6821 15 18.75C15 20.8179 16.6821 22.5 18.75 22.5ZM18.75 16.25C19.2859 16.25 19.8047 16.4276 20.2478 16.7627C20.4724 16.9311 20.7776 16.9311 21.0022 16.7627C21.4454 16.4276 21.9642 16.25 22.5001 16.25C23.8782 16.25 25.0001 17.3712 25.0001 18.75C25.0001 20.1288 23.8782 21.25 22.5 21.25C21.9641 21.25 21.4453 21.0724 21.0022 20.7373C20.8898 20.6531 20.758 20.611 20.6249 20.611C20.4919 20.611 20.36 20.6531 20.2477 20.7373C19.8046 21.0724 19.2858 21.25 18.7499 21.25C17.3717 21.25 16.2499 20.1288 16.2499 18.75C16.2499 17.3712 17.3718 16.25 18.75 16.25Z" />
</svg>
