<svg width="45" height="45" viewBox="0 0 45 45" fill="none" xmlns="http://www.w3.org/2000/svg">
<path d="M41.7044 0.00195312H38.2589C37.4067 0.00195312 37.4067 1.3202 38.2589 1.3202H41.7044C42.7948 1.3202 43.6818 2.20729 43.6818 3.29757V5.55572H1.32214V3.29757C1.32214 2.20729 2.20914 1.3202 3.29951 1.3202H34.3967C35.2489 1.3202 35.2489 0.00195312 34.3967 0.00195312H3.29951C1.48226 0.00195312 0.00389465 1.48032 0.00389465 3.29757V32.3334C-0.0894372 34.1743 1.5219 35.7261 3.32385 35.7261H29.6228L29.6374 44.3401C29.6383 44.9261 30.3933 45.2419 30.7983 44.7663L35.3517 39.4188L42.3757 39.7199C42.9743 39.7441 43.2929 38.9891 42.8534 38.5793L39.6888 35.6291H41.7043C43.5216 35.6291 44.9999 34.1508 44.9999 32.3335V3.29757C45 1.48032 43.5217 0.00195312 41.7044 0.00195312ZM28.3837 6.87397L25.3961 13.5019H6.80024C5.342 13.5019 4.15567 14.6883 4.15567 16.1465V23.154C4.15567 24.6122 5.34209 25.7985 6.80024 25.7985H11.4274C12.2796 25.7985 12.2796 24.4803 11.4274 24.4803H6.80024C6.06888 24.4803 5.47391 23.8852 5.47391 23.154V16.1465C5.47391 15.4152 6.06897 14.8202 6.80024 14.8202H37.8359C38.5672 14.8202 39.1622 15.4152 39.1622 16.1465V23.154C39.1622 23.8852 38.5672 24.4803 37.8359 24.4803H14.9364C14.0842 24.4803 14.0842 25.7985 14.9364 25.7985H19.8534L16.0165 34.3107H3.29951C2.20914 34.3107 1.32214 33.4236 1.32214 32.3333V6.87397H28.3837ZM35.4983 38.1056L34.3388 35.4455C33.9983 34.6643 32.7898 35.1911 33.1304 35.9723L34.2899 38.6325L30.9526 42.5518L30.9304 29.2662L40.6491 38.3264L35.4983 38.1056ZM41.7044 34.3108H38.2749L30.7182 27.2662C30.3045 26.8806 29.6087 27.1839 29.6097 27.7495L29.6207 34.3108H17.4625L21.2994 25.7986H37.8359C39.2941 25.7986 40.4805 24.6123 40.4805 23.154V16.1466C40.4805 14.6884 39.2941 13.502 37.8359 13.502H26.8422L29.8297 6.87406H43.6818V32.3334C43.6818 33.4237 42.7948 34.3108 41.7044 34.3108Z" fill="#DA2128"/>
<path d="M30.9685 22.9112C31.3325 22.9112 31.6277 22.6162 31.6277 22.2521V17.0469C31.5974 16.1741 30.3393 16.1748 30.3094 17.0469V22.2521C30.3094 22.6162 30.6044 22.9112 30.9685 22.9112Z" fill="#DA2128"/>
<path d="M20.3413 22.8648H22.5146C23.387 22.8347 23.387 21.5766 22.5146 21.5465H21.0004V20.2859H22.3544C22.7184 20.2859 23.0135 19.9908 23.0135 19.6267C23.0135 19.2626 22.7184 18.9676 22.3544 18.9676H21.0004V17.7069H22.5146C23.3861 17.6775 23.3877 16.4188 22.5146 16.3887H20.3413C19.9773 16.3887 19.6822 16.6837 19.6822 17.0478V22.2056C19.6822 22.5698 19.9772 22.8648 20.3413 22.8648Z" fill="#DA2128"/>
<path d="M24.5531 22.5671C24.696 22.695 24.8516 22.7588 25.0199 22.7585C25.0632 22.7583 26.0835 22.7656 26.4913 22.7585C30.0164 22.689 30.0292 16.3353 26.4378 16.389H25.0073C24.6384 16.389 24.3481 16.6875 24.3481 17.0534V22.0174C24.3539 22.2173 24.4223 22.4006 24.5531 22.5671ZM26.4378 17.7072C27.7191 17.7072 27.8186 19.1359 27.8186 19.5737C27.8186 20.8391 27.1403 21.4251 26.4682 21.4368C26.2853 21.44 25.9666 21.435 25.6743 21.4368C25.6703 20.1936 25.6696 18.9504 25.6674 17.7072H26.4378Z" fill="#DA2128"/>
<path d="M13.0476 21.9425C13.2817 21.6637 13.2453 21.248 12.9664 21.0139C12.6877 20.78 12.272 20.8163 12.0379 21.0952C10.9182 22.2867 8.91556 21.1903 8.95959 19.6509C8.94614 18.1118 10.7231 17.1674 11.9894 18.0388C12.7297 18.5022 13.4331 17.4594 12.7272 16.9465C10.6012 15.4826 7.6192 17.0669 7.64143 19.6509C7.58325 22.4011 11.1612 24.0905 13.0476 21.9425Z" fill="#DA2128"/>
<path d="M33.462 17.7069H34.2344V22.253C34.2646 23.1258 35.5228 23.1251 35.5526 22.253V17.7069H36.3366C37.2094 17.6767 37.2087 16.4186 36.3366 16.3887H33.462C32.5892 16.4189 32.5899 17.6769 33.462 17.7069Z" fill="#DA2128"/>
<path d="M15.0348 22.9122C15.3988 22.9122 15.6939 22.6172 15.6939 22.2531V20.8021L17.3543 22.6886C17.9254 23.3376 18.9017 22.4514 18.3439 21.8176L17.0299 20.3248C19.2993 19.6117 18.8159 16.4347 16.4198 16.3888C16.4183 16.3885 15.0363 16.3889 15.0349 16.3888C14.6709 16.3888 14.3758 16.6838 14.3758 17.0479V22.2531C14.3757 22.6172 14.6708 22.9122 15.0348 22.9122ZM16.4198 17.707C16.8373 17.707 17.1901 18.0247 17.1901 18.4008C17.1901 18.7768 16.8373 19.0944 16.4198 19.0944C16.2517 19.0944 15.968 19.0956 15.7016 19.0968C15.6993 18.6336 15.699 18.1703 15.6977 17.7071H16.4198V17.707Z" fill="#DA2128"/>
<path d="M3.95941 4.15028C4.80766 4.15028 4.80907 2.83203 3.95941 2.83203C3.11117 2.83203 3.10976 4.15028 3.95941 4.15028Z" fill="#DA2128"/>
<path d="M6.70947 4.15028C7.55772 4.15028 7.55912 2.83203 6.70947 2.83203C5.86131 2.83203 5.8599 4.15028 6.70947 4.15028Z" fill="#DA2128"/>
<path d="M9.45891 4.15028C10.3072 4.15028 10.3086 2.83203 9.45891 2.83203C8.61066 2.83203 8.60926 4.15028 9.45891 4.15028Z" fill="#DA2128"/>
</svg>
