<svg width="30" height="30" viewBox="0 0 30 30" fill="none" xmlns="http://www.w3.org/2000/svg">
<path d="M23.7765 19.5479C21.6647 19.5479 19.9467 21.2658 19.9467 23.3777C19.9467 25.4895 21.6647 27.2075 23.7765 27.2075C25.8884 27.2075 27.6063 25.4895 27.6063 23.3777C27.6063 21.2658 25.8884 19.5479 23.7765 19.5479ZM23.7765 25.2926C22.7205 25.2926 21.8616 24.4338 21.8616 23.3777C21.8616 22.3216 22.7204 21.4628 23.7765 21.4628C24.8326 21.4628 25.6914 22.3216 25.6914 23.3777C25.6914 24.4337 24.8326 25.2926 23.7765 25.2926Z"   />
<path d="M6.54248 19.5479C4.43065 19.5479 2.71268 21.2658 2.71268 23.3777C2.71268 25.4895 4.43065 27.2075 6.54248 27.2075C8.65432 27.2075 10.3723 25.4895 10.3723 23.3777C10.3722 21.2658 8.65426 19.5479 6.54248 19.5479ZM6.54248 25.2926C5.48645 25.2926 4.62758 24.4338 4.62758 23.3777C4.62758 22.3216 5.48639 21.4628 6.54248 21.4628C7.59858 21.4628 8.45738 22.3216 8.45738 23.3777C8.45733 24.4337 7.59852 25.2926 6.54248 25.2926Z"   />
<path d="M29.8353 14.798L27.0906 10.7449C26.9125 10.4819 26.6154 10.3242 26.2978 10.3242H18.734V12.2391H25.7901L28.0851 15.6285V22.42H26.6489V24.3349H29.0425C29.5713 24.3349 29.9999 23.9063 29.9999 23.3775V15.3349C30 15.1433 29.9426 14.9563 29.8353 14.798Z"   />
<path d="M20.8086 22.4199H9.41499V24.3348H20.8086V22.4199Z"   />
<path d="M18.734 7.64355H15.6063V9.55846H17.7765V23.3776H19.6914V8.60098C19.6914 8.07217 19.2628 7.64355 18.734 7.64355Z"   />
<path d="M4.30852 9.55846V7.64355H0.957422C0.428613 7.64355 0 8.07217 0 8.60098V23.3776C0 23.9064 0.428613 24.335 0.957422 24.335H3.6702V22.4201H1.9149V9.55846H4.30852Z"   />
<path d="M26.9101 15.8041L25.5061 13.6339C25.3296 13.361 25.027 13.1963 24.7022 13.1963H21.8299C21.3011 13.1963 20.8724 13.6249 20.8724 14.1537V17.8239C20.8724 18.3527 21.3011 18.7813 21.8299 18.7813H26.1064C26.6353 18.7813 27.0639 18.3527 27.0636 17.8239V16.3243C27.0636 16.1398 27.0103 15.9589 26.9101 15.8041ZM25.149 16.8665H22.7873V15.1115H24.1817L25.149 16.6071V16.8665Z"   />
<path d="M9.95743 2.79297C6.29713 2.79297 3.31911 5.77094 3.31911 9.43129C3.31911 13.0916 6.29708 16.0696 9.95743 16.0696C13.6178 16.0696 16.5957 13.0916 16.5957 9.43129C16.5957 5.77094 13.6178 2.79297 9.95743 2.79297ZM9.95743 14.1546C7.35288 14.1546 5.23401 12.0358 5.23401 9.43123C5.23401 6.82662 7.35288 4.70781 9.95743 4.70781C12.562 4.70781 14.6808 6.82662 14.6808 9.43123C14.6808 12.0358 12.562 14.1546 9.95743 14.1546Z"   />
<path d="M11.8471 9.96637L10.9148 9.03379V6.97305C10.9148 6.44424 10.4862 6.01562 9.95741 6.01562C9.4286 6.01562 8.99998 6.44424 8.99998 6.97305V9.43047C8.99998 9.68418 9.10053 9.9277 9.28018 10.1074L10.493 11.3202C10.68 11.5072 10.9251 11.6007 11.1702 11.6007C11.4153 11.6007 11.6604 11.5072 11.8471 11.3205C12.2208 10.9465 12.2208 10.3401 11.8471 9.96637Z"   />
</svg>
