<svg width="25" height="25" viewBox="0 0 25 25" fill="none" xmlns="http://www.w3.org/2000/svg">
<path d="M12.5 25C19.3925 25 25 19.3925 25 12.5C25 5.60746 19.3925 0 12.5 0C5.60746 0 0 5.60746 0 12.5C0 19.3925 5.60746 25 12.5 25ZM12.5 1.11465C18.778 1.11465 23.8854 6.22201 23.8854 12.5C23.8854 18.778 18.778 23.8854 12.5 23.8854C6.22201 23.8854 1.11465 18.778 1.11465 12.5C1.11465 6.22201 6.22201 1.11465 12.5 1.11465Z"/>
<path d="M9.41885 11.3765C10.6937 11.3765 11.7268 10.3431 11.7268 9.06855C11.7272 7.79373 10.6937 6.76025 9.41885 6.76025C8.14404 6.76025 7.11087 7.79373 7.11087 9.06824C7.11211 10.3424 8.14466 11.375 9.41885 11.3765ZM9.41885 7.8749C10.0779 7.8749 10.6122 8.40921 10.6122 9.06824C10.6125 9.72757 10.0782 10.2619 9.41885 10.2619C8.75983 10.2619 8.22552 9.72757 8.22552 9.06824C8.22614 8.40952 8.76014 7.87584 9.41885 7.8749Z" />
<path d="M13.1332 16.0717C13.1332 17.3465 14.1667 18.3797 15.4412 18.3797C16.716 18.3797 17.7495 17.3465 17.7495 16.0717C17.7495 14.7969 16.716 13.7634 15.4412 13.7634C14.167 13.765 13.1348 14.7975 13.1332 16.0717ZM16.6348 16.0717C16.6348 16.7307 16.1005 17.2651 15.4412 17.2651C14.7822 17.2651 14.2479 16.7307 14.2479 16.0717C14.2479 15.4127 14.7822 14.8784 15.4412 14.8781C16.1002 14.879 16.6339 15.4127 16.6348 16.0717Z" />
<path d="M8.2563 19.007C8.51412 19.1753 8.85965 19.1025 9.0276 18.8447L16.906 6.76451C17.0152 6.5975 17.027 6.38508 16.9371 6.20719C16.8469 6.02929 16.6687 5.91297 16.4697 5.9024C16.2706 5.89183 16.0809 5.98824 15.9724 6.15556L8.09395 18.2357C7.9257 18.4938 7.99847 18.8391 8.2563 19.007Z" />
</svg>
