<svg width="16" height="16" viewBox="0 0 16 16" fill="none" xmlns="http://www.w3.org/2000/svg">
<g clip-path="url(#clip0)">
<path fill-rule="evenodd" clip-rule="evenodd" d="M3.19948 1.06665C2.91658 1.06665 2.64527 1.17903 2.44523 1.37907C2.24519 1.57911 2.13281 1.85042 2.13281 2.13332V13.8667C2.13281 14.1495 2.24519 14.4209 2.44523 14.6209C2.64527 14.8209 2.91658 14.9333 3.19948 14.9333H11.1995C11.3409 14.9333 11.4766 14.8771 11.5766 14.7771C11.6766 14.6771 11.7328 14.5414 11.7328 14.4C11.7328 14.2585 11.6766 14.1229 11.5766 14.0229C11.4766 13.9228 11.3409 13.8667 11.1995 13.8667H3.19948V2.13332H11.1995C11.3409 2.13332 11.4766 2.07713 11.5766 1.97711C11.6766 1.87709 11.7328 1.74143 11.7328 1.59998C11.7328 1.45853 11.6766 1.32288 11.5766 1.22286C11.4766 1.12284 11.3409 1.06665 11.1995 1.06665H3.19948ZM13.4437 5.22238C13.3436 5.12224 13.2078 5.06598 13.0661 5.06598C12.9245 5.06598 12.7887 5.12224 12.6885 5.22238C12.5884 5.32253 12.5321 5.45836 12.5321 5.59998C12.5321 5.74161 12.5884 5.87744 12.6885 5.97758L14.1787 7.46665H6.93281C6.79136 7.46665 6.65571 7.52284 6.55569 7.62286C6.45567 7.72288 6.39948 7.85854 6.39948 7.99998C6.39948 8.14143 6.45567 8.27709 6.55569 8.37711C6.65571 8.47713 6.79136 8.53332 6.93281 8.53332H14.1787L12.6885 10.0224C12.5884 10.1225 12.5321 10.2584 12.5321 10.4C12.5321 10.5416 12.5884 10.6774 12.6885 10.7776C12.7887 10.8777 12.9245 10.934 13.0661 10.934C13.2078 10.934 13.3436 10.8777 13.4437 10.7776L15.8437 8.37758C15.8934 8.32804 15.9328 8.26919 15.9597 8.20439C15.9866 8.1396 16.0004 8.07014 16.0004 7.99998C16.0004 7.92983 15.9866 7.86037 15.9597 7.79557C15.9328 7.73078 15.8934 7.67193 15.8437 7.62238L13.4437 5.22238Z" />
</g>
<defs>
<clipPath id="clip0">
<rect width="16" height="16" fill="white"/>
</clipPath>
</defs>
</svg>
