<svg width="30" height="30" viewBox="0 0 30 30" fill="none" xmlns="http://www.w3.org/2000/svg">
<path d="M22.6577 17.8359C20.5725 17.8359 18.8761 19.5323 18.8761 21.6175C18.8761 23.7026 20.5725 25.399 22.6577 25.399C24.7432 25.399 26.4392 23.7026 26.4392 21.6175C26.4392 19.5323 24.7428 17.8359 22.6577 17.8359ZM22.6577 23.5082C21.6149 23.5082 20.7669 22.6602 20.7669 21.6175C20.7669 20.5747 21.6149 19.7267 22.6577 19.7267C23.7004 19.7267 24.5484 20.5747 24.5484 21.6175C24.5484 22.6603 23.7004 23.5082 22.6577 23.5082Z"   />
<path d="M9.73743 17.8359C7.65225 17.8359 5.9559 19.5323 5.9559 21.6175C5.9559 23.7026 7.65225 25.399 9.73743 25.399C11.8226 25.399 13.5189 23.7026 13.5189 21.6175C13.5189 19.5323 11.8226 17.8359 9.73743 17.8359ZM9.73743 23.5082C8.69469 23.5082 7.84666 22.6602 7.84666 21.6175C7.84666 20.5747 8.69469 19.7267 9.73743 19.7267C10.7799 19.7267 11.6282 20.5747 11.6282 21.6175C11.6282 22.6603 10.7802 23.5082 9.73743 23.5082Z"   />
<path d="M25.204 7.01182C25.0433 6.6926 24.7165 6.49121 24.3592 6.49121H19.3802V8.38197H23.7762L26.3504 13.5021L28.0401 12.6525L25.204 7.01182Z"   />
<path d="M19.8215 20.7041H12.6682V22.5949H19.8215V20.7041Z"   />
<path d="M6.90114 20.7041H3.62388C3.10169 20.7041 2.67853 21.1273 2.67853 21.6495C2.67853 22.1716 3.10175 22.5948 3.62388 22.5948H6.9012C7.42339 22.5948 7.84656 22.1716 7.84656 21.6495C7.84656 21.1273 7.42333 20.7041 6.90114 20.7041Z"   />
<path d="M29.8014 14.9241L27.9418 12.5291C27.7632 12.2985 27.4874 12.1636 27.1953 12.1636H20.3255V5.54594C20.3255 5.02375 19.9023 4.60059 19.3802 4.60059H3.62388C3.10169 4.60059 2.67853 5.02381 2.67853 5.54594C2.67853 6.06807 3.10175 6.49129 3.62388 6.49129H18.4348V13.1089C18.4348 13.6311 18.858 14.0543 19.3801 14.0543H26.7323L28.1091 15.8278V20.7034H25.4936C24.9714 20.7034 24.5482 21.1267 24.5482 21.6488C24.5482 22.171 24.9714 22.5941 25.4936 22.5941H29.0545C29.5767 22.5941 29.9998 22.1709 29.9999 21.6488V15.5039C29.9999 15.2941 29.9299 15.0899 29.8014 14.9241Z"   />
<path d="M6.83822 15.9141H2.48945C1.96726 15.9141 1.5441 16.3373 1.5441 16.8594C1.5441 17.3816 1.96732 17.8048 2.48945 17.8048H6.83816C7.36035 17.8048 7.78351 17.3815 7.78351 16.8594C7.78357 16.3373 7.36035 15.9141 6.83822 15.9141Z"   />
<path d="M9.0126 12.1953H0.945352C0.423223 12.1953 0 12.6185 0 13.1407C0 13.6629 0.423223 14.0861 0.945352 14.0861H9.0126C9.53479 14.0861 9.95795 13.6629 9.95795 13.1407C9.95795 12.6186 9.53479 12.1953 9.0126 12.1953Z"   />
<path d="M10.5567 8.47656H2.48945C1.96726 8.47656 1.5441 8.89979 1.5441 9.42191C1.5441 9.9441 1.96732 10.3673 2.48945 10.3673H10.5567C11.0789 10.3673 11.502 9.94404 11.502 9.42191C11.5021 8.89979 11.0789 8.47656 10.5567 8.47656Z"   />
</svg>
