<svg width="40" height="40" viewBox="0 0 40 40" fill="none" xmlns="http://www.w3.org/2000/svg">
<g clip-path="url(#clip0)">
<path d="M38.745 11.7608C38.3659 11.547 37.9359 11.4401 37.5009 11.4515C37.0659 11.463 36.6421 11.5923 36.2748 11.8256L34.3015 13.059C32.3238 12.3417 30.3322 11.5423 28.3767 10.6788C26.7645 9.96696 25.5884 9.39438 24.6434 8.93431C22.5649 7.92243 21.6157 7.45946 19.9836 7.50056C18.3898 7.53962 17.4642 8.03563 15.9307 8.85681C15.027 9.34071 13.9023 9.94274 12.2453 10.6792C10.1248 11.6209 7.94371 12.4199 5.71671 13.0711L3.72367 11.8256C3.35634 11.5923 2.93256 11.463 2.49752 11.4515C2.06248 11.4401 1.63249 11.547 1.25343 11.7608C0.871231 11.9689 0.552698 12.2769 0.331812 12.6519C0.110926 13.0268 -0.00402844 13.4547 -0.000787823 13.8899V21.2506C-0.00209809 21.6637 0.102355 22.0703 0.302628 22.4316C0.502901 22.7929 0.792327 23.097 1.14335 23.3149L4.99921 25.7249V26.3692C4.9983 26.8265 5.09818 27.2785 5.29174 27.6929C5.48531 28.1073 5.7678 28.4739 6.11913 28.7667C12.7648 34.3114 19.9277 34.3756 19.9992 34.3756C26.2991 34.3756 31.0638 31.3104 33.9517 28.739C34.281 28.4457 34.5445 28.0861 34.725 27.6837C34.9056 27.2814 34.999 26.8454 34.9992 26.4045V25.972L38.855 23.562C39.206 23.3442 39.4955 23.0402 39.6958 22.6788C39.8961 22.3175 40.0005 21.9109 39.9992 21.4977V13.8899C40.0025 13.4547 39.8875 13.0268 39.6666 12.6519C39.4457 12.2769 39.1272 11.9689 38.745 11.7608ZM1.80585 22.2548C1.63508 22.1488 1.49427 22.0009 1.39684 21.8251C1.2994 21.6493 1.24858 21.4515 1.24921 21.2506V13.8899C1.24923 13.6785 1.30582 13.471 1.41312 13.2889C1.52043 13.1067 1.67453 12.9566 1.85942 12.8542C2.04432 12.7517 2.25327 12.7006 2.46459 12.7061C2.67592 12.7117 2.8819 12.7737 3.06117 12.8857L4.99921 14.097V24.2506L1.80585 22.2548ZM33.7492 26.4045C33.7491 26.6691 33.693 26.9307 33.5846 27.1722C33.4763 27.4136 33.3181 27.6295 33.1205 27.8055C30.3948 30.2324 25.9055 33.1256 19.9992 33.1256C18.1344 33.1256 12.1495 32.1701 6.91992 27.807C6.70937 27.6313 6.54011 27.4114 6.42419 27.1629C6.30827 26.9144 6.24853 26.6434 6.24921 26.3692V14.2193C8.46676 13.5617 10.6392 12.7607 12.753 11.8215C14.4519 11.0667 15.5991 10.4524 16.5209 9.95884C18.0296 9.15118 18.718 8.78243 20.0148 8.75056C21.3416 8.71876 22.093 9.08282 24.0964 10.0583C25.0508 10.5229 26.2384 11.1013 27.8719 11.8225C29.8116 12.6789 31.7868 13.4744 33.7494 14.1897L33.7492 26.4045ZM38.7492 21.4977C38.7499 21.6987 38.699 21.8965 38.6016 22.0723C38.5042 22.2481 38.3634 22.396 38.1926 22.502L34.9992 24.4978V14.097L36.9373 12.886C37.1165 12.774 37.3225 12.712 37.5338 12.7064C37.745 12.7009 37.954 12.752 38.1389 12.8544C38.3238 12.9568 38.4779 13.1069 38.5852 13.289C38.6925 13.4711 38.7491 13.6786 38.7492 13.8899V21.4977Z"  />
<path d="M9.58835 17.5371L9.16046 18.7116C12.6336 19.9788 16.3023 20.6263 19.9994 20.6244C23.6965 20.6263 27.3652 19.9789 30.8384 18.7116L30.4105 17.5372C27.0745 18.7544 23.5506 19.3763 19.9994 19.3744C16.4483 19.3762 12.9244 18.7543 9.58835 17.5371Z"  />
<path d="M19.9994 24.9994C16.4483 25.0012 12.9244 24.3793 9.58835 23.1621L9.16046 24.3366C12.6336 25.6038 16.3023 26.2513 19.9994 26.2494C23.6965 26.2513 27.3652 25.6039 30.8384 24.3366L30.4105 23.1622C27.0745 24.3794 23.5506 25.0013 19.9994 24.9994Z"  />
</g>
<defs>
<clipPath id="clip0">
<rect width="40" height="40" fill="white"/>
</clipPath>
</defs>
</svg>
