<svg width="25" height="25" viewBox="0 0 25 25" fill="none" xmlns="http://www.w3.org/2000/svg">
<g clip-path="url(#clip0)">
<path d="M23.0253 2.90585C21.855 1.7395 20.2078 1.12305 18.2617 1.12305C16.135 1.12305 14.2975 2.02847 12.9477 3.74126C12.7911 3.94001 12.6497 4.13895 12.5227 4.33331C12.4008 4.14143 12.2648 3.94516 12.1136 3.74908C10.7876 2.03114 8.92887 1.12305 6.73828 1.12305C4.79221 1.12305 3.14503 1.7395 1.97468 2.90585C0.66433 4.21181 0 6.12011 0 8.57754C0 10.9631 1.39523 13.8252 4.14715 17.0845C6.24561 19.5702 8.80947 21.8699 10.5091 23.1932C11.0952 23.6496 11.7975 23.8777 12.5 23.8777C13.2023 23.8777 13.905 23.6496 14.4909 23.1932C15.0564 22.7528 16.2165 21.8142 17.6306 20.4744C18.0222 20.1036 18.0387 19.4855 17.668 19.0939C17.297 18.7023 16.679 18.6857 16.2874 19.0565C14.933 20.3396 13.8287 21.2334 13.291 21.652C12.8252 22.0148 12.1748 22.0148 11.709 21.652C10.0872 20.3894 7.64103 18.1953 5.63946 15.8247C3.22781 12.9683 1.95312 10.4624 1.95312 8.57754C1.95312 4.03061 4.55532 3.07617 6.73828 3.07617C10.4929 3.07617 11.5128 6.6824 11.5561 6.84185C11.5572 6.84662 11.5591 6.85101 11.5604 6.85577C11.5667 6.87809 11.5738 6.90002 11.5816 6.92177C11.5849 6.93092 11.5881 6.94008 11.5917 6.94904C11.5999 6.97002 11.6089 6.99062 11.6184 7.01103C11.6226 7.01962 11.6266 7.02839 11.631 7.03678C11.6417 7.05757 11.6529 7.0776 11.665 7.09763C11.6692 7.1043 11.6732 7.11117 11.6774 7.11784C11.6913 7.13997 11.7064 7.16114 11.7222 7.18212C11.7247 7.18536 11.727 7.1888 11.7294 7.19185C11.8507 7.34863 12.0199 7.47051 12.2244 7.53059C12.664 7.65953 13.1207 7.46555 13.3415 7.08714C13.3419 7.08637 13.3425 7.08542 13.343 7.08447C13.3562 7.06158 13.3684 7.03831 13.3799 7.01408C13.3835 7.00665 13.3869 6.99921 13.3904 6.99177C13.3984 6.97384 13.4058 6.95553 13.4127 6.93684C13.4186 6.92177 13.4237 6.90651 13.4287 6.89106C13.431 6.884 13.4338 6.87733 13.4359 6.87027C13.439 6.86035 13.7449 5.8651 14.5197 4.90227C15.4947 3.69053 16.7538 3.07617 18.2617 3.07617C20.4447 3.07617 23.0469 4.03061 23.0469 8.57754C23.0469 10.3991 21.8575 12.7577 19.5118 15.5878C19.1677 16.003 19.2253 16.6185 19.6405 16.9628C19.8227 17.1139 20.0436 17.1875 20.2631 17.1875C20.5439 17.1875 20.8225 17.0671 21.0155 16.8341C23.6967 13.5994 25 10.8986 25 8.57754C25 6.12011 24.3357 4.21181 23.0253 2.90585Z"/>
</g>
<defs>
<clipPath id="clip0">
<rect width="25" height="25" fill="white"/>
</clipPath>
</defs>
</svg>
