<svg width="16" height="16" viewBox="0 0 16 16" fill="none" xmlns="http://www.w3.org/2000/svg">
<path d="M2.80672 3.74008C4.15339 5.46675 6.66672 8.66675 6.66672 8.66675V12.0001C6.66672 12.7334 7.26672 13.3334 8.00005 13.3334C8.73339 13.3334 9.33339 12.7334 9.33339 12.0001V8.66675C9.33339 8.66675 11.8467 5.46675 13.1934 3.74008C13.2698 3.64166 13.317 3.52377 13.3297 3.39982C13.3424 3.27587 13.32 3.15085 13.2651 3.039C13.2103 2.92714 13.1251 2.83294 13.0193 2.76713C12.9135 2.70132 12.7913 2.66654 12.6667 2.66675H3.33339C2.78005 2.66675 2.46672 3.30008 2.80672 3.74008Z" fill="#262626"/>
</svg>
