<svg width="25" height="25" viewBox="0 0 25 25" fill="none" xmlns="http://www.w3.org/2000/svg">
<path d="M15.4166 16.6668H14.1666V12.9168C14.1653 11.7668 13.2333 10.8349 12.0833 10.8335H3.75002C2.60003 10.8349 1.66806 11.7668 1.6667 12.9168V16.6668H0.41671C0.186607 16.6668 4.57764e-05 16.8534 4.57764e-05 17.0835V22.9168C4.57764e-05 23.1469 0.186607 23.3334 0.41671 23.3334H0.833374V24.5834C0.833374 24.8135 1.01994 25.0001 1.25004 25.0001H2.91669C3.1468 25.0001 3.33336 24.8135 3.33336 24.5834V23.3334H12.5V24.5834C12.5 24.8135 12.6865 25.0001 12.9166 25.0001H14.5833C14.8134 25.0001 15 24.8135 15 24.5834V23.3334H15.4166C15.6467 23.3334 15.8333 23.1469 15.8333 22.9168V17.0835C15.8333 16.8534 15.6468 16.6668 15.4166 16.6668ZM2.50003 24.1667H1.6667V23.3334H2.50003V24.1667ZM3.33336 22.5001H0.833374V17.5001H3.33336V22.5001ZM11.6666 22.5001H4.16669V20.0001H11.6666V22.5001ZM12.0833 16.6668C11.8532 16.6668 11.6666 16.8534 11.6666 17.0835V19.1668H4.16669V17.0835C4.16669 16.8534 3.98013 16.6668 3.75002 16.6668H2.50003V12.9168C2.50003 12.2265 3.05966 11.6668 3.75002 11.6668H12.0833C12.7737 11.6668 13.3333 12.2265 13.3333 12.9168V16.6668H12.0833ZM14.1666 24.1667H13.3333V23.3334H14.1666V24.1667ZM15 22.5001H12.5V17.5001H15V22.5001Z" />
<path d="M24.9808 6.95853L22.8974 0.291909C22.8429 0.118316 22.6819 0.000244141 22.4999 0.000244141H19.1666C18.9846 0.000244141 18.8237 0.118316 18.7691 0.291909L16.6858 6.95853C16.6167 7.17806 16.7388 7.41197 16.9583 7.48103C16.9988 7.49374 17.0409 7.50025 17.0833 7.5002H20.4166V22.5001H17.5C17.2699 22.5001 17.0833 22.6867 17.0833 22.9168V24.5834C17.0833 24.8135 17.2699 25.0001 17.5 25.0001H24.1666C24.3967 25.0001 24.5833 24.8135 24.5833 24.5834V22.9168C24.5833 22.6867 24.3967 22.5001 24.1666 22.5001H21.2499V7.5002H24.5833C24.8134 7.5002 24.9999 7.31369 24.9999 7.08353C25 7.04114 24.9935 6.999 24.9808 6.95853ZM23.7499 23.3334V24.1668H17.9166V23.3334H23.7499ZM17.65 6.66687L19.4729 0.833572H22.1937L24.0166 6.66687H17.65Z" />
<path d="M13.75 1.66681H10.1466L8.17707 0.0914057C8.02483 -0.0304686 7.80848 -0.0304686 7.65624 0.0914057L5.68667 1.66681H2.08336V9.16677H13.75V1.66681ZM7.91666 0.95015L8.81207 1.66681H7.02041L7.91666 0.95015ZM12.9166 8.33344H2.91669V2.50014H12.9166V8.33344Z" />
<path d="M12.5 2.91675H3.33336V7.91671H12.5V2.91675ZM11.6666 7.08338H4.16669V3.75007H11.6666V7.08338Z" />
</svg>
