<svg width="12" height="12" viewBox="0 0 12 12" fill="none" xmlns="http://www.w3.org/2000/svg">
<path d="M11.6834 6.19276L6.43343 0.35943C6.21234 0.113263 5.78768 0.113263 5.56659 0.35943L0.316594 6.19276C0.241027 6.27653 0.191425 6.38044 0.17382 6.49187C0.156215 6.6033 0.171365 6.71745 0.217428 6.82043C0.310761 7.03101 0.519594 7.16635 0.750011 7.16635H1.91668V11.2497C1.91668 11.4044 1.97814 11.5528 2.08753 11.6622C2.19693 11.7716 2.3453 11.833 2.50001 11.833H4.25001C4.40472 11.833 4.55309 11.7716 4.66249 11.6622C4.77189 11.5528 4.83334 11.4044 4.83334 11.2497V8.91635H7.16668V11.2497C7.16668 11.4044 7.22814 11.5528 7.33753 11.6622C7.44693 11.7716 7.5953 11.833 7.75001 11.833H9.50001C9.65472 11.833 9.80309 11.7716 9.91249 11.6622C10.0219 11.5528 10.0833 11.4044 10.0833 11.2497V7.16635H11.25C11.363 7.16683 11.4737 7.13443 11.5685 7.0731C11.6634 7.01177 11.7384 6.92416 11.7843 6.82095C11.8303 6.71774 11.8452 6.6034 11.8273 6.49185C11.8094 6.38031 11.7594 6.27639 11.6834 6.19276Z" fill="#262626"/>
</svg>
