<svg width="45" height="45" viewBox="0 0 45 45" fill="none" xmlns="http://www.w3.org/2000/svg">
<path d="M44.3534 42.3216H0.646552C0.289397 42.3216 0 42.0322 0 41.675V3.32624C0 2.96908 0.289397 2.67969 0.646552 2.67969H39.8721C40.2292 2.67969 40.5186 2.96908 40.5186 3.32624V22.4453H44.3534C44.7106 22.4453 45 22.7347 45 23.0918V41.675C45 42.0322 44.7106 42.3216 44.3534 42.3216ZM11.7672 41.0285H43.7069V23.7384H30.3359C29.9788 23.7384 29.6894 23.449 29.6894 23.0918V21.8471H28.0932C27.736 21.8471 27.4466 21.5577 27.4466 21.2005C27.4466 20.8434 27.736 20.554 28.0932 20.554H29.6894V16.3729C29.6894 16.0157 29.9788 15.7263 30.3359 15.7263C30.6931 15.7263 30.9825 16.0157 30.9825 16.3729V22.4453H34.74V3.97279H30.9825V8.70038C30.9825 9.05753 30.6931 9.34693 30.3359 9.34693C29.9788 9.34693 29.6894 9.05753 29.6894 8.70038V6.71753H19.5259C19.1687 6.71753 18.8793 6.42814 18.8793 6.07098V3.97279H16.5189V6.97615C16.5189 7.33331 16.2295 7.6227 15.8723 7.6227C15.5152 7.6227 15.2258 7.33331 15.2258 6.97615V3.97279H14.5259V5.64012C14.5259 5.99727 14.2366 6.28667 13.8794 6.28667H13.6779C13.7935 6.55072 13.8579 6.84245 13.8579 7.14865V8.82969C13.8579 10.018 12.8912 10.9848 11.7028 10.9848C10.5145 10.9848 9.54776 10.018 9.54776 8.82969V7.14865C9.54776 6.84219 9.61215 6.55072 9.72776 6.28667H9.52629C9.16914 6.28667 8.87974 5.99727 8.87974 5.64012V3.97279H6.53017V12.5365C6.53017 12.8937 6.24078 13.183 5.88362 13.183H5.0431V16.8136H15.2258V13.8296C15.2258 13.4724 15.5152 13.183 15.8723 13.183C16.2295 13.183 16.5189 13.4724 16.5189 13.8296V20.5537H18.1151C18.4722 20.5537 18.7616 20.8431 18.7616 21.2003C18.7616 21.5574 18.4722 21.8468 18.1151 21.8468H16.5189V25.0149C16.5189 25.3721 16.2295 25.6615 15.8723 25.6615C15.5152 25.6615 15.2258 25.3721 15.2258 25.0149V18.1067H5.99147V36.6746H11.1207C11.4778 36.6746 11.7672 36.964 11.7672 37.3212V41.0285ZM1.2931 41.0285H10.4741V37.9677H5.34491C4.98776 37.9677 4.69836 37.6783 4.69836 37.3212V26.0712H1.2931V41.0285ZM1.2931 24.778H4.69836V18.1067H1.2931V24.778ZM38.2759 22.4453H39.2255V3.97279H38.2759V22.4453ZM36.0331 22.4453H36.9828V3.97279H36.0331V22.4453ZM1.2931 16.5883H3.75V13.183H1.2931V16.5883ZM4.39655 11.8899H5.23707V3.97279H1.2931V11.8899H4.39655ZM11.7026 6.28667C11.2272 6.28667 10.8406 6.67357 10.8406 7.14865V8.82969C10.8406 9.30503 11.2272 9.69167 11.7026 9.69167C12.1779 9.69167 12.5646 9.30503 12.5646 8.82969V7.14865C12.5646 6.67357 12.1779 6.28667 11.7026 6.28667ZM20.1724 5.42443H29.6894V3.97279H20.1724V5.42443ZM11.7026 4.99357H13.2328V3.97279H10.1723V4.99357H11.7026ZM25.8507 39.1098H20.6666C20.3095 39.1098 20.0201 38.8204 20.0201 38.4632V26.6153C20.0201 26.2581 20.3095 25.9687 20.6666 25.9687H25.8507C26.2078 25.9687 26.4972 26.2581 26.4972 26.6153V38.4635C26.4972 38.8204 26.2076 39.1098 25.8507 39.1098ZM21.3132 37.8167H25.2041V37.1701H22.9094C22.5522 37.1701 22.2628 36.8807 22.2628 36.5236V28.5549C22.2628 28.1978 22.5522 27.9084 22.9094 27.9084H25.2041V27.2618H21.3132V37.8167ZM23.5559 35.877H25.2041V29.2015H23.5559V35.877ZM39.8721 38.7218C39.5149 38.7218 39.2255 38.4324 39.2255 38.0753V26.9546C39.2255 26.5974 39.5149 26.308 39.8721 26.308C40.2292 26.308 40.5186 26.5974 40.5186 26.9546V28.9605C40.8548 28.9832 41.1207 29.2633 41.1207 29.6055V35.4244C41.1207 35.7666 40.8551 36.0467 40.5186 36.0694V38.0753C40.5186 38.4324 40.2292 38.7218 39.8721 38.7218ZM33.639 37.946C31.5828 37.946 29.9721 35.7309 29.9721 32.9029C29.9721 30.0749 31.5828 27.8598 33.639 27.8598C35.6953 27.8598 37.306 30.0749 37.306 32.9029C37.306 35.7309 35.6953 37.946 33.639 37.946ZM33.639 29.1529C32.3522 29.1529 31.2652 30.8701 31.2652 32.9029C31.2652 34.9356 32.3524 36.6529 33.639 36.6529C34.9257 36.6529 36.0129 34.9356 36.0129 32.9029C36.0129 30.8701 34.9257 29.1529 33.639 29.1529Z" fill="#DA2128"/>
</svg>
