<svg width="30" height="30" viewBox="0 0 30 30" fill="none" xmlns="http://www.w3.org/2000/svg">
<path d="M26.0669 6.43313L19.8169 0.183105C19.6997 0.065918 19.541 0 19.375 0H6.24996C4.87184 0 3.75 1.12119 3.75 2.50002V27.5C3.75 28.8788 4.87184 30 6.25002 30H23.75C25.1282 30 26.25 28.8788 26.25 27.5V6.87498C26.25 6.70898 26.1841 6.55031 26.0669 6.43313ZM20 2.13381L24.1162 6.25002H21.25C20.5603 6.25002 20 5.6891 20 5.00004V2.13381ZM25 27.5C25 28.189 24.4397 28.75 23.75 28.75H6.25002C5.56031 28.75 5.00004 28.189 5.00004 27.5V2.50002C5.00004 1.81096 5.56037 1.25004 6.25002 1.25004H18.75V5.00004C18.75 6.37881 19.8718 7.5 21.25 7.5H25V27.5Z" />
<path d="M21.875 17.5H8.12502C7.77955 17.5 7.5 17.7796 7.5 18.125C7.5 18.4705 7.77955 18.75 8.12502 18.75H21.875C22.2205 18.75 22.5001 18.4705 22.5001 18.125C22.5 17.7796 22.2204 17.5 21.875 17.5Z" />
<path d="M21.875 13.75H8.12502C7.77955 13.75 7.5 14.0296 7.5 14.375C7.5 14.7205 7.77955 15.0001 8.12502 15.0001H21.875C22.2205 15.0001 22.5001 14.7205 22.5001 14.375C22.5 14.0296 22.2204 13.75 21.875 13.75Z" />
<path d="M21.875 21.25H8.12502C7.77955 21.25 7.5 21.5296 7.5 21.875C7.5 22.2205 7.77955 22.5 8.12502 22.5H21.875C22.2205 22.5 22.5001 22.2205 22.5001 21.875C22.5 21.5296 22.2204 21.25 21.875 21.25Z" />
<path d="M15.625 25H8.12502C7.77955 25 7.5 25.2796 7.5 25.625C7.5 25.9705 7.77955 26.25 8.12502 26.25H15.625C15.9705 26.25 16.25 25.9705 16.25 25.625C16.25 25.2796 15.9705 25 15.625 25Z" />
<path d="M13.7491 10.625C13.7491 10.9705 14.0287 11.25 14.3742 11.25H21.8742C22.2196 11.25 22.4992 10.9705 22.4992 10.625C22.4992 10.2796 22.2196 10 21.8742 10H14.3742C14.0287 10.0001 13.7491 10.2796 13.7491 10.625Z" />
<path d="M9.375 10.0001H8.12502C7.77955 10.0001 7.5 10.2797 7.5 10.6251C7.5 10.9706 7.77955 11.2502 8.12502 11.2502H8.75004C8.75004 11.5956 9.02959 11.8752 9.37506 11.8752C9.72053 11.8752 10.0001 11.5956 10.0001 11.2502V11.135C10.7259 10.8761 11.25 10.1888 11.25 9.3751C11.25 8.34115 10.4089 7.5001 9.375 7.5001C9.03076 7.5001 8.74998 7.21996 8.74998 6.87508C8.74998 6.53025 9.03076 6.25006 9.375 6.25006H10.625C10.9704 6.25006 11.25 5.97051 11.25 5.62504C11.25 5.27957 10.9704 5.00002 10.625 5.00002H9.99996C9.99996 4.65455 9.72041 4.375 9.37494 4.375C9.02947 4.375 8.74992 4.65455 8.74992 5.00002V5.11516C8.02406 5.37408 7.5 6.06133 7.5 6.87508C7.5 7.90902 8.34105 8.75008 9.375 8.75008C9.71924 8.75008 10 9.03021 10 9.3751C10 9.71998 9.71924 10.0001 9.375 10.0001Z" />
</svg>
