<svg width="25" height="25" viewBox="0 0 25 25" fill="none" xmlns="http://www.w3.org/2000/svg">
<path d="M24.2188 11.7187H20.7031V10.9374C20.7031 10.8338 20.662 10.7345 20.5887 10.6612C20.5155 10.5879 20.4161 10.5468 20.3125 10.5468H19.7727L19.382 9.76554H21.875C22.1858 9.76554 22.4839 9.64208 22.7036 9.42231C22.9234 9.20254 23.0469 8.90447 23.0469 8.59367V2.34367C23.0469 2.03287 22.9234 1.73479 22.7036 1.51503C22.4839 1.29526 22.1858 1.17179 21.875 1.17179H13.2812C12.9704 1.17179 12.6724 1.29526 12.4526 1.51503C12.2328 1.73479 12.1094 2.03287 12.1094 2.34367V8.59367C12.1094 8.90447 12.2328 9.20254 12.4526 9.42231C12.6724 9.64208 12.9704 9.76554 13.2812 9.76554H15.7742L15.3836 10.5468H14.8438C14.7401 10.5468 14.6408 10.5879 14.5675 10.6612C14.4943 10.7345 14.4531 10.8338 14.4531 10.9374V11.7187H10.5469V9.76554C10.5469 9.66194 10.5057 9.56258 10.4325 9.48933C10.3592 9.41607 10.2599 9.37492 10.1562 9.37492H9.53672L10.4324 8.47921L9.88008 7.92687L8.98438 8.82257V7.81242H8.20312V9.37492H7.8125C7.7089 9.37492 7.60954 9.41607 7.53629 9.48933C7.46303 9.56258 7.42188 9.66194 7.42188 9.76554V11.7187H4.6875V10.5468C4.6875 10.4432 4.64635 10.3438 4.57309 10.2706C4.49983 10.1973 4.40048 10.1562 4.29688 10.1562H3.51562V6.95929C3.74332 6.87879 3.94059 6.7299 4.08043 6.533C4.22028 6.3361 4.29587 6.1008 4.29688 5.85929C4.2962 5.68527 4.25614 5.51367 4.17969 5.35734L6.44531 3.09171L7.03125 3.67765V5.46867C7.03123 5.54592 7.05412 5.62144 7.09702 5.68569C7.13992 5.74993 7.2009 5.80002 7.27227 5.8296C7.31966 5.84936 7.37053 5.85946 7.42188 5.85929C7.52547 5.85927 7.62481 5.8181 7.69805 5.74484L10.823 2.61984C10.8777 2.56521 10.9149 2.49561 10.9299 2.41985C10.945 2.34409 10.9372 2.26556 10.9077 2.19419C10.8781 2.12282 10.8281 2.06182 10.7639 2.0189C10.6996 1.97598 10.6241 1.95306 10.5469 1.95304H8.75547L7.30742 0.504995C7.23417 0.431764 7.13483 0.390625 7.03125 0.390625C6.92767 0.390625 6.82833 0.431764 6.75508 0.504995L5.5832 1.67687C5.50997 1.75012 5.46883 1.84946 5.46883 1.95304C5.46883 2.05662 5.50997 2.15596 5.5832 2.22921L5.89297 2.53898L3.62734 4.8046C3.4709 4.7281 3.29915 4.68803 3.125 4.68742C2.8489 4.68689 2.58152 4.7841 2.37022 4.96183C2.15892 5.13956 2.01734 5.38633 1.97055 5.65844C1.92377 5.93055 1.97479 6.21044 2.11459 6.44854C2.2544 6.68663 2.47395 6.86756 2.73438 6.95929V10.1562H1.95312C1.84952 10.1562 1.75017 10.1973 1.67691 10.2706C1.60366 10.3438 1.5625 10.4432 1.5625 10.5468V11.7187H0.78125C0.67765 11.7187 0.578293 11.7598 0.505036 11.8331C0.43178 11.9063 0.390625 12.0057 0.390625 12.1093V14.453C0.390625 14.5566 0.43178 14.656 0.505036 14.7293C0.578293 14.8025 0.67765 14.8437 0.78125 14.8437H1.95312V24.2187C1.95312 24.3223 1.99428 24.4216 2.06754 24.4949C2.14079 24.5681 2.24015 24.6093 2.34375 24.6093H3.90625C4.00466 24.6096 4.09956 24.5728 4.17198 24.5061C4.2444 24.4395 4.289 24.348 4.29688 24.2499L5.04805 14.8437H19.952L20.7031 24.2499C20.711 24.348 20.7556 24.4395 20.828 24.5061C20.9004 24.5728 20.9953 24.6096 21.0938 24.6093H22.6562C22.7598 24.6093 22.8592 24.5681 22.9325 24.4949C23.0057 24.4216 23.0469 24.3223 23.0469 24.2187V14.8437H24.2188C24.3223 14.8437 24.4217 14.8025 24.495 14.7293C24.5682 14.656 24.6094 14.5566 24.6094 14.453V12.1093C24.6094 12.0057 24.5682 11.9063 24.495 11.8331C24.4217 11.7598 24.3223 11.7187 24.2188 11.7187ZM7.8125 4.5257V3.67726L8.75547 2.73429H9.60391L7.8125 4.5257ZM7.03125 1.33351L8.04141 2.34367L7.42188 2.9632L6.41172 1.95304L7.03125 1.33351ZM3.125 5.46867C3.20226 5.46867 3.27778 5.49158 3.34202 5.5345C3.40626 5.57742 3.45633 5.63843 3.48589 5.70981C3.51546 5.78118 3.52319 5.85972 3.50812 5.9355C3.49305 6.01127 3.45584 6.08088 3.40121 6.13551C3.34658 6.19014 3.27698 6.22734 3.20121 6.24241C3.12543 6.25748 3.04689 6.24975 2.97551 6.22018C2.90414 6.19062 2.84313 6.14055 2.80021 6.07631C2.75728 6.01207 2.73438 5.93655 2.73438 5.85929C2.73438 5.75569 2.77553 5.65633 2.84879 5.58308C2.92204 5.50982 3.0214 5.46867 3.125 5.46867ZM13.2812 1.95304H21.875C21.9786 1.95304 22.078 1.9942 22.1512 2.06745C22.2245 2.14071 22.2656 2.24007 22.2656 2.34367V6.64054H12.8906V2.34367C12.8906 2.24007 12.9318 2.14071 13.005 2.06745C13.0783 1.9942 13.1776 1.95304 13.2812 1.95304ZM12.8906 8.59367V7.42179H22.2656V8.59367C22.2656 8.69727 22.2245 8.79662 22.1512 8.86988C22.078 8.94314 21.9786 8.98429 21.875 8.98429H13.2812C13.1776 8.98429 13.0783 8.94314 13.005 8.86988C12.9318 8.79662 12.8906 8.69727 12.8906 8.59367ZM16.6477 9.76554H18.5086L18.8992 10.5468H16.257L16.6477 9.76554ZM15.2344 11.328H19.9219V11.7187H15.2344V11.328ZM8.20312 10.1562H9.76562V11.7187H8.20312V10.1562ZM2.34375 10.9374H3.90625V11.7187H2.34375V10.9374ZM3.5457 23.828H2.73438V14.8437H4.26445L3.5457 23.828ZM22.2656 23.828H21.4543L20.7355 14.8437H22.2656V23.828ZM23.8281 14.0624H1.17188V12.4999H23.8281V14.0624Z"/>
</svg>
