<svg width="25" height="25" viewBox="0 0 25 25" fill="none" xmlns="http://www.w3.org/2000/svg">
<path d="M24.5833 5.41675H15.4167C15.1866 5.41675 15 5.60331 15 5.83341V15.8334H12.9167V15.4167H13.3333C13.5634 15.4167 13.75 15.2302 13.75 15.0001C13.75 14.77 13.5634 14.5834 13.3333 14.5834H9.16667C8.93656 14.5834 8.75 14.77 8.75 15.0001C8.75 15.2302 8.93656 15.4167 9.16667 15.4167H9.58333V15.8334H5.41667V15.4167H5.83333C6.06344 15.4167 6.25 15.2302 6.25 15.0001C6.25 14.77 6.06344 14.5834 5.83333 14.5834H1.66667C1.43656 14.5834 1.25 14.77 1.25 15.0001C1.25 15.2302 1.43656 15.4167 1.66667 15.4167H2.08333V15.8334H0.416667C0.186562 15.8334 0 16.02 0 16.2501V24.5834C0 24.8135 0.186562 25.0001 0.416667 25.0001H24.5833C24.8134 25.0001 25 24.8135 25 24.5834V5.83341C25 5.60331 24.8134 5.41675 24.5833 5.41675ZM10.4167 15.4167H12.0833V15.8334H10.4167V15.4167ZM2.91667 15.4167H4.58333V15.8334H2.91667V15.4167ZM6.66667 24.1667H0.833333V19.1667H6.66667V24.1667ZM6.66667 18.3334H0.833333V16.6667H6.66667V18.3334ZM15 24.1667H7.5V16.6667H15V24.1667ZM24.1667 24.1667H15.8333V12.9167H24.1667V24.1667ZM24.1667 12.0834H15.8333V6.25008H24.1667V12.0834Z"/>
<path d="M8.74999 23.3333H13.75C13.9801 23.3333 14.1667 23.1468 14.1667 22.9167V17.9167C14.1667 17.6866 13.9801 17.5 13.75 17.5H8.74999C8.51989 17.5 8.33333 17.6866 8.33333 17.9167V22.9167C8.33333 23.1468 8.51989 23.3333 8.74999 23.3333ZM9.16666 18.3333H13.3333V22.5H9.16666V18.3333Z" />
<path d="M16.6667 11.6667C16.8968 11.6667 17.0833 11.4802 17.0833 11.2501V9.58341C17.0833 9.35331 16.8968 9.16675 16.6667 9.16675C16.4366 9.16675 16.25 9.35331 16.25 9.58341V11.2501C16.25 11.4802 16.4366 11.6667 16.6667 11.6667Z" />
<path d="M16.6667 15.8333C16.8968 15.8333 17.0833 15.6467 17.0833 15.4166V13.7499C17.0833 13.5198 16.8968 13.3333 16.6667 13.3333C16.4366 13.3333 16.25 13.5198 16.25 13.7499V15.4166C16.25 15.6467 16.4366 15.8333 16.6667 15.8333Z" />
<path d="M0.982295 7.40313C1.0574 7.46583 1.15214 7.5001 1.25 7.5H13.75C13.9801 7.50031 14.1669 7.31406 14.1673 7.08396C14.1674 6.98615 14.1331 6.89135 14.0704 6.81625L9.90374 1.81625C9.82442 1.7213 9.70703 1.66651 9.58333 1.66667H9.16666V0.416667C9.16666 0.186562 8.9801 0 8.74999 0H6.25C6.01989 0 5.83333 0.186562 5.83333 0.416667V1.66667H5.41667C5.29297 1.66651 5.17557 1.7213 5.09625 1.81625L0.929587 6.81625C0.782087 6.99286 0.805681 7.25563 0.982295 7.40313ZM6.66666 0.833333H8.33333V1.66667H6.66666V0.833333ZM5.61208 2.5H9.38791L12.8604 6.66667H2.13959L5.61208 2.5Z" />
</svg>
