<svg width="25" height="21" viewBox="0 0 25 21" fill="none" xmlns="http://www.w3.org/2000/svg">
<path d="M7.54877 12.9999H7.91668C8.14679 12.9999 8.33335 12.8134 8.33335 12.5833V10.9166C8.33335 10.2263 7.77371 9.66663 7.08335 9.66663H2.50004V0.916665C2.50004 0.686562 2.31348 0.5 2.08337 0.5H0.416715C0.186611 0.5 4.96705e-05 0.686562 4.96705e-05 0.916665V12.5833C4.96705e-05 12.8134 0.186611 12.9999 0.416715 12.9999H0.78463L0.00254966 20.0374C-0.0227627 20.2661 0.142132 20.4721 0.370829 20.4974C0.386038 20.499 0.40135 20.4999 0.416715 20.4999H1.66671C1.8791 20.4999 2.05749 20.3402 2.08087 20.1291L2.87504 12.9999H5.46253L6.25419 20.1291C6.27747 20.3396 6.45492 20.4991 6.66669 20.4999H7.91668C8.14679 20.4999 8.33335 20.3134 8.3334 20.0833C8.3334 20.068 8.33257 20.0527 8.33085 20.0374L7.54877 12.9999ZM1.29379 19.6666H0.882129L1.62504 12.9999H2.03671L1.29379 19.6666ZM7.04169 19.6666L6.29877 12.9999H6.71044L7.45127 19.6666H7.04169ZM7.50002 12.1666H0.833379V1.33333H1.66671V10.0833C1.66671 10.3134 1.85327 10.5 2.08337 10.5H7.08335C7.31346 10.5 7.50002 10.6865 7.50002 10.9166V12.1666Z"/>
<path d="M24.9975 20.0374L24.2154 12.9999H24.5833C24.8134 12.9999 25 12.8134 25 12.5833V0.916665C25 0.686562 24.8134 0.5 24.5833 0.5H22.9166C22.6865 0.5 22.5 0.686562 22.5 0.916665V9.66663H17.9166C17.2263 9.66663 16.6666 10.2263 16.6666 10.9166V12.5833C16.6666 12.8134 16.8532 12.9999 17.0833 12.9999H17.4512L16.6691 20.0374C16.6438 20.2661 16.8087 20.4721 17.0374 20.4974C17.0526 20.499 17.0679 20.4999 17.0833 20.4999H18.3333C18.5457 20.4999 18.7241 20.3402 18.7475 20.1291L19.5416 12.9999H22.1291L22.9208 20.1291C22.9441 20.3396 23.1215 20.4991 23.3333 20.4999H24.5833C24.8134 20.4999 25 20.3134 25 20.0833C25 20.0679 24.9992 20.0526 24.9975 20.0374ZM17.9583 19.6666H17.5466L18.2916 12.9999H18.7033L17.9583 19.6666ZM23.7083 19.6666L22.9654 12.9999H23.377L24.1158 19.6666H23.7083ZM24.1666 12.1666H17.5V10.9166C17.5 10.6865 17.6865 10.5 17.9166 10.5H22.9166C23.1467 10.5 23.3333 10.3134 23.3333 10.0833V1.33333H24.1666V12.1666Z" />
<path d="M18.75 7.58332V5.91666C18.75 5.68656 18.5634 5.5 18.3333 5.5H6.66668C6.43658 5.5 6.25002 5.68656 6.25002 5.91666V7.58332C6.25002 7.81343 6.43658 7.99999 6.66668 7.99999H10.8333V20.0833C10.8333 20.3134 11.0199 20.4999 11.25 20.4999H13.75C13.9801 20.4999 14.1666 20.3134 14.1666 20.0833V7.99999H18.3333C18.5635 7.99999 18.75 7.81343 18.75 7.58332ZM13.3333 19.6666H11.6667V7.99999H13.3333V19.6666ZM17.9166 7.16666H7.08335V6.33333H17.9166V7.16666Z" />
</svg>
