<svg width="25" height="25" viewBox="0 0 25 25" fill="none" xmlns="http://www.w3.org/2000/svg">
<path d="M24.937 21.422C24.8271 20.894 24.31 20.5551 23.7819 20.665C23.2538 20.7749 22.9149 21.2921 23.0249 21.8201C23.0882 22.1242 23.0128 22.4359 22.8181 22.6755C22.7053 22.8142 22.4537 23.0469 22.0369 23.0469H2.9639C2.54701 23.0469 2.2955 22.8142 2.1827 22.6755C1.98793 22.436 1.91254 22.1242 1.97587 21.8201C2.98934 16.9521 7.28304 13.3962 12.2415 13.2763C12.3274 13.2796 12.4137 13.2812 12.5004 13.2812C12.5874 13.2812 12.674 13.2795 12.7602 13.2762C16.253 13.36 19.4813 15.1291 21.4364 18.0448C21.7367 18.4928 22.3433 18.6124 22.7913 18.3121C23.2393 18.0117 23.359 17.4051 23.0586 16.9571C21.4562 14.5673 19.1294 12.8295 16.4764 11.9563C18.0931 10.7439 19.141 8.81235 19.141 6.64062C19.141 2.979 16.162 0 12.5004 0C8.83871 0 5.85975 2.979 5.85975 6.64062C5.85975 8.81367 6.90897 10.7463 8.52738 11.9585C7.04457 12.4467 5.65321 13.2063 4.43544 14.208C2.20243 16.0448 0.649841 18.6067 0.0637568 21.422C-0.119935 22.3041 0.100134 23.2102 0.667419 23.9078C1.23192 24.6019 2.06898 25 2.9639 25H22.0368C22.9318 25 23.7688 24.6019 24.3333 23.9078C24.9007 23.2102 25.1207 22.3041 24.937 21.422ZM7.81288 6.64062C7.81288 4.05591 9.91566 1.95312 12.5004 1.95312C15.0851 1.95312 17.1879 4.05591 17.1879 6.64062C17.1879 9.14575 15.2125 11.1982 12.7376 11.3222C12.6587 11.3207 12.5796 11.32 12.5004 11.32C12.4216 11.32 12.3428 11.3208 12.2641 11.3222C9.78871 11.1987 7.81288 9.14609 7.81288 6.64062Z" fill="#262626"/>
</svg>
