<svg width="81" height="81" viewBox="0 0 81 81" fill="none" xmlns="http://www.w3.org/2000/svg">
<path fill-rule="evenodd" clip-rule="evenodd" d="M81 0H0V81H81V0ZM10.2695 11.7812V26H15.7969C17.4115 25.987 18.6549 25.6289 19.5273 24.9258C20.3997 24.2227 20.8359 23.1875 20.8359 21.8203C20.8359 21.0195 20.6243 20.3424 20.2012 19.7891C19.7845 19.2357 19.2116 18.8678 18.4824 18.6855C19.1204 18.4382 19.6185 18.0508 19.9766 17.5234C20.3346 16.9896 20.5137 16.3743 20.5137 15.6777C20.5137 14.4017 20.0677 13.4349 19.1758 12.7773C18.2839 12.1133 16.9753 11.7812 15.25 11.7812H10.2695ZM13.1992 23.6465V19.8086H15.8848C17.2324 19.8281 17.9062 20.4889 17.9062 21.791C17.9062 22.3704 17.7109 22.8262 17.3203 23.1582C16.9362 23.4837 16.3991 23.6465 15.709 23.6465H13.1992ZM15.3672 17.7383H13.1992V14.1543H15.25C16.0573 14.1543 16.6465 14.2975 17.0176 14.584C17.3952 14.8639 17.584 15.3262 17.584 15.9707C17.584 17.123 16.8451 17.7122 15.3672 17.7383ZM32.1934 23.6465H25.9727V11.7812H23.043V26H32.1934V23.6465ZM36.9688 23.0703H42.1055L43.0918 26H46.207L40.8848 11.7812H38.1699L32.877 26H35.9922L36.9688 23.0703ZM41.3145 20.6973H37.7598L39.5273 15.375L41.3145 20.6973ZM56.7832 24.877C57.8053 23.998 58.3717 22.7936 58.4824 21.2637H55.5527C55.4876 22.1296 55.2305 22.7708 54.7812 23.1875C54.3385 23.5977 53.6647 23.8027 52.7598 23.8027C51.7572 23.8027 51.0215 23.4479 50.5527 22.7383C50.0905 22.0286 49.8594 20.9056 49.8594 19.3691V18.2949C49.8724 16.8236 50.1198 15.7396 50.6016 15.043C51.0898 14.3398 51.8223 13.9883 52.7988 13.9883C53.6973 13.9883 54.3646 14.1966 54.8008 14.6133C55.2435 15.0234 55.5007 15.6875 55.5723 16.6055H58.502C58.3457 15.0169 57.7663 13.7832 56.7637 12.9043C55.7611 12.0254 54.4395 11.5859 52.7988 11.5859C51.6139 11.5859 50.5723 11.8659 49.6738 12.4258C48.7819 12.9792 48.0951 13.7767 47.6133 14.8184C47.1315 15.86 46.8906 17.0645 46.8906 18.4316V19.3008C46.8906 21.4427 47.4115 23.1289 48.4531 24.3594C49.5013 25.5833 50.9368 26.1953 52.7598 26.1953C54.4264 26.1953 55.7676 25.7559 56.7832 24.877ZM63.3359 21.9375L64.8594 20.2969L68.5117 26H71.998L66.8027 18.0996L71.8516 11.7812H68.248L64.625 16.459L63.3359 18.2266V11.7812H60.4062V26H63.3359V21.9375ZM15.5332 41.7949H13.1992V47H10.2695V32.7812H15.5527C17.2324 32.7812 18.528 33.1556 19.4395 33.9043C20.3509 34.653 20.8066 35.7109 20.8066 37.0781C20.8066 38.0482 20.5951 38.8587 20.1719 39.5098C19.7552 40.1543 19.1204 40.6686 18.2676 41.0527L21.3438 46.8633V47H18.1992L15.5332 41.7949ZM13.1992 39.4219H15.5625C16.2982 39.4219 16.8678 39.2363 17.2715 38.8652C17.6751 38.4876 17.877 37.9701 17.877 37.3125C17.877 36.6419 17.6849 36.1146 17.3008 35.7305C16.9232 35.3464 16.3405 35.1543 15.5527 35.1543H13.1992V39.4219ZM31.5977 40.8379H25.9727V44.6465H32.5742V47H23.043V32.7812H32.5547V35.1543H25.9727V38.543H31.5977V40.8379ZM34.293 47V32.7812H38.668C39.918 32.7812 41.0345 33.0645 42.0176 33.6309C43.0072 34.1908 43.7786 34.9915 44.332 36.0332C44.8854 37.0684 45.1621 38.2467 45.1621 39.5684V40.2227C45.1621 41.5443 44.8887 42.7194 44.3418 43.748C43.8014 44.7767 43.0365 45.5742 42.0469 46.1406C41.0573 46.707 39.9408 46.9935 38.6973 47H34.293ZM37.2227 35.1543V44.6465H38.6387C39.7845 44.6465 40.6602 44.2721 41.2656 43.5234C41.8711 42.7747 42.1803 41.7038 42.1934 40.3105V39.5586C42.1934 38.1133 41.8939 37.0195 41.2949 36.2773C40.696 35.5286 39.8203 35.1543 38.668 35.1543H37.2227ZM23.2578 53.7812L21.3438 63.8984L19.0098 53.7812H16.5293L14.1855 63.8789L12.2617 53.7812H9.3418L12.4961 68H15.4453L17.7598 58.4883L20.0742 68H23.0234L26.1777 53.7812H23.2578ZM36.4121 68H39.3418V53.7812H36.4121V59.543H30.6992V53.7812H27.7695V68H30.6992V61.9062H36.4121V68ZM42.0957 68H45.0254V53.7812H42.0957V68ZM53.8047 56.1543H58.1602V53.7812H46.5781V56.1543H50.875V68H53.8047V56.1543ZM62.7695 61.8379H68.3945V59.543H62.7695V56.1543H69.3516V53.7812H59.8398V68H69.3711V65.6465H62.7695V61.8379Z" fill="white"/>
</svg>
