<svg width="18" height="18" viewBox="0 0 18 18" fill="none" xmlns="http://www.w3.org/2000/svg">
<path fill-rule="evenodd" clip-rule="evenodd" d="M0.666016 3.16675C0.666016 1.78604 1.7853 0.666748 3.16602 0.666748H14.8327C16.2134 0.666748 17.3327 1.78604 17.3327 3.16675V14.8334C17.3327 16.2141 16.2134 17.3334 14.8327 17.3334H3.16602C1.7853 17.3334 0.666016 16.2141 0.666016 14.8334V3.16675Z" fill="#DA2128"/>
<path fill-rule="evenodd" clip-rule="evenodd" d="M13.0952 5.91089C13.4206 6.23633 13.4206 6.76396 13.0952 7.0894L7.92259 12.5061C7.59715 12.8315 7.06951 12.8315 6.74408 12.5061L4.24408 10.0061C3.91864 9.68063 3.91864 9.15299 4.24408 8.82756C4.56951 8.50212 5.09715 8.50212 5.42259 8.82756L7.33333 10.7383L11.9167 5.91089C12.2421 5.58545 12.7697 5.58545 13.0952 5.91089Z" fill="white"/>
</svg>
