<svg width="45" height="45" viewBox="0 0 45 45" fill="none" xmlns="http://www.w3.org/2000/svg">
<g clip-path="url(#clip0)">
<path d="M42.778 10.5336H35.4765C34.7116 9.23282 33.2978 8.35725 31.6826 8.35725H29.1916L24.2535 5.35944C24.19 5.32295 24.0641 5.26272 23.9113 5.26368H4.15802C1.86528 5.26368 0 7.12897 0 9.4217V16.0905C0 18.3832 1.86528 20.2485 4.15802 20.2485H9.04819L8.70999 23.8179C8.67561 24.1806 8.94179 24.5023 9.30443 24.5367C9.66655 24.5705 9.98883 24.305 10.0232 23.9424L10.3731 20.2487H15.8533L16.6636 30.5882H9.39351L9.7303 27.0329C9.76468 26.6702 9.4985 26.3485 9.13586 26.3141C8.77462 26.2802 8.45155 26.5459 8.41708 26.9084L8.0685 30.5885H6.53095C4.97608 30.5885 3.71113 31.8535 3.71113 33.4083V38.635C3.71113 39.2412 4.20419 39.7342 4.81032 39.7342H21.2196C21.8257 39.7342 22.3188 39.2412 22.3188 38.635V33.4083C22.3188 31.8535 21.0537 30.5885 19.4989 30.5885H17.9869L17.534 24.809H19.6228C20.3472 24.809 20.9908 24.348 21.2243 23.6613L22.382 20.2484H23.9114C23.9959 20.2406 24.1027 20.243 24.2537 20.1526L29.1918 17.1548H31.6828C33.2983 17.1548 34.7122 16.279 35.477 14.9778H42.7781C44.0034 14.9778 45.0003 13.981 45.0003 12.7557C45 11.54 43.9825 10.5282 42.778 10.5336ZM19.4989 31.9076C20.3264 31.9076 20.9996 32.5809 20.9996 33.4084V38.4153H5.03007V33.4084C5.03007 32.5809 5.70331 31.9076 6.53086 31.9076H19.4989ZM19.9753 23.2372C19.9238 23.3885 19.7822 23.49 19.6228 23.49H17.4305L17.1766 20.2487H20.9889L19.9753 23.2372ZM23.2518 18.9295H4.15802C2.5926 18.9295 1.31903 17.656 1.31903 16.0905V9.42179C1.31903 7.85628 2.5926 6.58271 4.15802 6.58271H23.2518V18.9295ZM28.3476 16.1243L24.5709 18.4171V7.09511L28.3476 9.38785V16.1243ZM31.6826 15.836H29.6666V9.67628H31.6826C33.3809 9.67628 34.7625 11.0579 34.7625 12.7561C34.7625 14.4543 33.3808 15.836 31.6826 15.836ZM42.778 13.6589H35.988C36.0491 13.3674 36.0816 13.0655 36.0816 12.7561C36.0816 12.4465 36.0491 12.1444 35.988 11.8528H42.778C43.2664 11.8499 43.6811 12.2644 43.6811 12.7559C43.681 13.2537 43.2759 13.6589 42.778 13.6589ZM3.8513 15.0046C3.8513 15.7663 4.47098 16.3859 5.23268 16.3859H19.3381C20.0998 16.3859 20.7195 15.7662 20.7195 15.0046V10.5077C20.7195 9.74601 20.0998 9.12642 19.3381 9.12642H10.7754C10.4111 9.12642 10.1159 9.4217 10.1159 9.78593C10.1159 10.1502 10.4111 10.4454 10.7754 10.4454H19.3381C19.3725 10.4454 19.4005 10.4734 19.4005 10.5077V15.0046C19.4005 15.039 19.3725 15.0669 19.3381 15.0669H5.23268C5.19829 15.0669 5.17033 15.0389 5.17033 15.0046V10.5077C5.17033 10.4733 5.19829 10.4454 5.23268 10.4454H7.69768C8.06199 10.4454 8.35719 10.1502 8.35719 9.78593C8.35719 9.4217 8.06199 9.12642 7.69768 9.12642H5.23268C4.47098 9.12642 3.8513 9.7461 3.8513 10.5077V15.0046Z" fill="#DA2128"/>
</g>
<defs>
<clipPath id="clip0">
<rect width="45" height="45" fill="white"/>
</clipPath>
</defs>
</svg>
