<svg width="16" height="16" viewBox="0 0 16 16" fill="none" xmlns="http://www.w3.org/2000/svg">
<path d="M1.25925 4.22875L7.25925 7.45195C7.46085 7.55995 7.72165 7.61115 7.98405 7.61115C8.24645 7.61115 8.50725 7.55995 8.70885 7.45195L14.7088 4.22875C15.1 4.01835 15.4697 3.19995 14.7521 3.19995H1.21685C0.49925 3.19995 0.86885 4.01835 1.25925 4.22875ZM14.8905 5.99115L8.70885 9.21275C8.43685 9.35515 8.24645 9.37195 7.98405 9.37195C7.72165 9.37195 7.53125 9.35515 7.25925 9.21275C6.98725 9.07035 1.55285 6.22155 1.10885 5.99035C0.79685 5.82715 0.80005 6.01835 0.80005 6.16555V12C0.80005 12.336 1.25285 12.8 1.60005 12.8H14.4C14.7472 12.8 15.2 12.336 15.2 12V6.16635C15.2 6.01915 15.2032 5.82795 14.8905 5.99115Z" fill="#262626"/>
</svg>
