<svg width="25" height="23" viewBox="0 0 25 23" fill="none" xmlns="http://www.w3.org/2000/svg">
<path d="M24.2188 9.9375H23.7607C23.8557 9.67046 23.8501 9.37799 23.7451 9.11475C24.0187 9.03992 24.2559 8.8684 24.4127 8.63199C24.5694 8.39558 24.6351 8.11033 24.5976 7.82917C24.56 7.54801 24.4217 7.29002 24.2084 7.10306C23.9951 6.9161 23.7212 6.81286 23.4375 6.8125H20.3125C20.2089 6.8125 20.1095 6.85365 20.0363 6.92691C19.963 7.00017 19.9219 7.09952 19.9219 7.20312V8.375H19.5312C19.4277 8.375 19.3283 8.41615 19.255 8.48941C19.1818 8.56267 19.1406 8.66202 19.1406 8.76562V9.9375H14.3955L14.27 9.15625H17.3828C17.7453 9.15585 18.0928 9.01168 18.3491 8.75537C18.6054 8.49906 18.7496 8.15154 18.75 7.78906V1.92969C18.7496 1.56721 18.6054 1.21969 18.3491 0.963382C18.0928 0.707072 17.7453 0.562901 17.3828 0.5625H7.61719C7.25471 0.562901 6.90719 0.707072 6.65088 0.963382C6.39457 1.21969 6.2504 1.56721 6.25 1.92969V7.78906C6.2504 8.15154 6.39457 8.49906 6.65088 8.75537C6.90719 9.01168 7.25471 9.15585 7.61719 9.15625H10.73L10.6045 9.9375H5.46875V7.20312C5.46875 7.09952 5.4276 7.00017 5.35434 6.92691C5.28108 6.85365 5.18173 6.8125 5.07812 6.8125H2.73438C2.63077 6.8125 2.53142 6.85365 2.45816 6.92691C2.38491 7.00017 2.34375 7.09952 2.34375 7.20312H1.5625C1.4589 7.20312 1.35954 7.24428 1.28629 7.31754C1.21303 7.39079 1.17188 7.49015 1.17188 7.59375V9.15625C1.17188 9.25985 1.21303 9.35921 1.28629 9.43246C1.35954 9.50572 1.4589 9.54688 1.5625 9.54688H2.34375V9.9375H0.78125C0.67765 9.9375 0.578293 9.97865 0.505036 10.0519C0.43178 10.1252 0.390625 10.2245 0.390625 10.3281V11.8906C0.390625 11.9942 0.43178 12.0936 0.505036 12.1668C0.578293 12.2401 0.67765 12.2812 0.78125 12.2812H1.90527L0.783691 22.002C0.77745 22.0567 0.782832 22.1121 0.799485 22.1646C0.816138 22.2171 0.843688 22.2655 0.880331 22.3066C0.916974 22.3477 0.961884 22.3806 1.01212 22.4032C1.06236 22.4257 1.1168 22.4374 1.17188 22.4375H1.95312C2.04396 22.4375 2.13198 22.4059 2.20202 22.3481C2.27207 22.2903 2.31977 22.2098 2.33691 22.1206L4.229 12.2812H20.771L22.6631 22.1206C22.6802 22.2098 22.7279 22.2903 22.798 22.3481C22.868 22.4059 22.956 22.4375 23.0469 22.4375H23.8281C23.8832 22.4374 23.9376 22.4257 23.9879 22.4032C24.0381 22.3806 24.083 22.3477 24.1197 22.3066C24.1563 22.2655 24.1839 22.2171 24.2005 22.1646C24.2172 22.1121 24.2226 22.0567 24.2163 22.002L23.0947 12.2812H24.2188C24.3223 12.2812 24.4217 12.2401 24.495 12.1668C24.5682 12.0936 24.6094 11.9942 24.6094 11.8906V10.3281C24.6094 10.2245 24.5682 10.1252 24.495 10.0519C24.4217 9.97865 24.3223 9.9375 24.2188 9.9375ZM20.7031 7.59375H23.4375C23.5411 7.59375 23.6405 7.6349 23.7137 7.70816C23.787 7.78142 23.8281 7.88077 23.8281 7.98438C23.8281 8.08798 23.787 8.18733 23.7137 8.26059C23.6405 8.33385 23.5411 8.375 23.4375 8.375H20.7031V7.59375ZM19.9219 9.15625H22.6562C22.7598 9.15625 22.8592 9.1974 22.9325 9.27066C23.0057 9.34392 23.0469 9.44327 23.0469 9.54688C23.0469 9.65048 23.0057 9.74983 22.9325 9.82309C22.8592 9.89635 22.7598 9.9375 22.6562 9.9375H19.9219V9.15625ZM7.61719 8.375C7.46183 8.37487 7.31287 8.3131 7.20301 8.20324C7.09315 8.09338 7.03138 7.94442 7.03125 7.78906V1.92969C7.03138 1.77433 7.09315 1.62537 7.20301 1.51551C7.31287 1.40565 7.46183 1.34388 7.61719 1.34375H17.3828C17.5382 1.34388 17.6871 1.40565 17.797 1.51551C17.9068 1.62537 17.9686 1.77433 17.9688 1.92969V7.78906C17.9686 7.94442 17.9068 8.09338 17.797 8.20324C17.6871 8.3131 17.5382 8.37487 17.3828 8.375H14.144L14.0088 7.53174C13.994 7.44005 13.9471 7.35662 13.8764 7.2964C13.8057 7.23618 13.7159 7.20311 13.623 7.20312H11.377C11.2841 7.20311 11.1943 7.23618 11.1236 7.2964C11.0529 7.35662 11.006 7.44005 10.9912 7.53174L10.856 8.375H7.61719ZM13.604 9.9375H11.396L11.71 7.98438H13.29L13.604 9.9375ZM3.125 7.59375H4.6875V9.9375H3.125V7.59375ZM1.95312 8.76562V7.98438H2.34375V8.76562H1.95312ZM1.63037 21.6562H1.61035L2.69189 12.2812H3.43311L1.63037 21.6562ZM23.3896 21.6562H23.3696L21.5669 12.2812H22.3081L23.3896 21.6562ZM23.8281 11.5H1.17188V10.7188H23.8281V11.5Z" />
</svg>
