<svg width="82" height="82" viewBox="0 0 82 82" fill="none" xmlns="http://www.w3.org/2000/svg">
<path d="M24.9747 33.7953C23.8523 32.5708 21.9135 32.4688 20.689 33.5913C19.4645 34.7137 19.3625 36.6525 20.4849 37.877L35.8931 54.6117C36.5053 55.2239 37.2196 55.6321 38.0359 55.6321C38.0359 55.6321 38.0359 55.6321 38.138 55.6321C38.9543 55.6321 39.7706 55.3259 40.2808 54.7137L79.2604 15.8362C80.4849 14.6117 80.4849 12.6729 79.2604 11.5504C78.0359 10.428 76.0972 10.3259 74.9747 11.5504L38.24 48.1831L24.9747 33.7953Z" fill="#DA2128"/>
<path d="M78.5461 37.9792C76.8114 37.9792 75.4849 39.3058 75.4849 41.0405C75.4849 60.0201 59.9746 75.5303 40.9951 75.5303C22.0155 75.5303 6.50526 60.0201 6.50526 41.0405C6.50526 22.0609 22.0155 6.55067 40.9951 6.55067C42.7298 6.55067 44.0563 5.22414 44.0563 3.48945C44.0563 1.75475 42.7298 0.428223 40.9951 0.428223C18.6481 0.428223 0.382812 18.6935 0.382812 41.0405C0.382812 63.3874 18.6481 81.6527 40.9951 81.6527C63.342 81.6527 81.6073 63.3874 81.6073 41.0405C81.6073 39.3058 80.2808 37.9792 78.5461 37.9792Z" fill="#A3A3A3"/>
</svg>
