<svg width="45" height="45" viewBox="0 0 45 45" fill="none" xmlns="http://www.w3.org/2000/svg">
<g clip-path="url(#clip0)">
<path d="M44.9994 7.71665C44.9994 7.71173 44.9988 7.70681 44.9986 7.7018C44.9981 7.6822 44.997 7.66286 44.9947 7.6437C44.9938 7.63667 44.9925 7.62964 44.9914 7.62261C44.9888 7.60494 44.9856 7.58754 44.9815 7.57049C44.9799 7.56372 44.9782 7.55704 44.9763 7.55027C44.9712 7.53173 44.9654 7.51354 44.9587 7.49561C44.9575 7.49218 44.9567 7.48866 44.9554 7.48532L43.1673 2.90781C42.987 2.44656 42.5505 2.14844 42.0552 2.14844H38.7994C38.4445 2.14844 38.1568 2.4361 38.1568 2.791C38.1568 3.14591 38.4445 3.43357 38.7994 3.43357H41.993L43.416 7.07654H29.9623L29.1193 3.43357H34.088C34.4429 3.43357 34.7306 3.14591 34.7306 2.791C34.7306 2.4361 34.4429 2.14844 34.088 2.14844H28.3111H21.8364H8.09221C7.59686 2.14844 7.1604 2.44656 6.98013 2.90799L5.192 7.48532C5.19068 7.48875 5.18998 7.49227 5.18866 7.49561C5.18198 7.51345 5.17618 7.53164 5.17108 7.55027C5.16924 7.55704 5.16748 7.56372 5.1659 7.57049C5.16186 7.58763 5.1586 7.60503 5.15597 7.62261C5.15491 7.62964 5.15359 7.63667 5.15272 7.6437C5.15052 7.66286 5.14929 7.6822 5.14876 7.7018C5.14867 7.70672 5.14806 7.71164 5.14797 7.71665C5.14797 7.71744 5.14788 7.71823 5.14788 7.71902V17.1593C5.14788 17.5142 5.43555 17.8019 5.79045 17.8019C6.14535 17.8019 6.43302 17.5142 6.43302 17.1593V8.36168H20.0536V18.1288C20.0536 18.5107 20.2786 18.8588 20.6269 19.0155C20.7544 19.0729 20.8902 19.1009 21.0251 19.1009C21.2586 19.1009 21.4894 19.0171 21.6705 18.8566L25.0737 15.8416L28.4769 18.8565C28.7626 19.1099 29.1724 19.1722 29.5207 19.0155C29.8689 18.8587 30.0939 18.5107 30.0939 18.1288V8.36168H43.7144V37.183C43.7144 37.6441 43.3392 38.0193 42.8781 38.0193H31.0961C31.0961 38.012 31.0953 38.0047 31.0952 37.9974C31.0945 37.9397 31.0924 37.8821 31.0874 37.825C32.1937 38.1183 33.3757 37.5497 33.8191 36.4625C34.0522 35.8906 34.0488 35.2622 33.8093 34.693C33.7867 34.6394 33.7619 34.5874 33.7357 34.5362C33.7308 34.5268 33.7262 34.5173 33.7213 34.5079C33.6956 34.4591 33.6682 34.4114 33.6392 34.3649C33.6336 34.3558 33.6278 34.347 33.6221 34.3381C33.5915 34.2903 33.5598 34.2435 33.526 34.1984C33.5253 34.1975 33.5246 34.1967 33.524 34.1959C33.4904 34.1514 33.4549 34.1085 33.4183 34.0666C33.4116 34.0589 33.405 34.0512 33.3982 34.0435C33.3619 34.0031 33.3242 33.964 33.2852 33.9263C33.2776 33.9189 33.2698 33.9118 33.2621 33.9046C33.2212 33.8662 33.1794 33.8288 33.1358 33.7936C33.1343 33.7924 33.1328 33.7913 33.1313 33.7901C33.0884 33.7556 33.0439 33.7229 32.9984 33.6914C32.9903 33.6857 32.9822 33.6799 32.9738 33.6743C32.9284 33.6437 32.8818 33.6148 32.834 33.5873C32.83 33.585 32.8264 33.5824 32.8224 33.5801C33.094 33.3451 33.3083 33.0476 33.4479 32.7054C33.6811 32.1335 33.6777 31.5051 33.4382 30.9358C33.2286 30.4377 32.8603 30.0371 32.3885 29.7886C32.3211 29.7531 32.2515 29.7206 32.1801 29.6915L22.1793 25.6137L26.8345 24.1728C27.942 23.83 28.5658 22.6487 28.2249 21.5398C28.0978 21.1258 27.8456 20.7767 27.5199 20.5216C27.0352 20.1418 26.3873 19.9703 25.7448 20.1052C25.7418 20.106 25.7388 20.1065 25.7357 20.1073C25.7001 20.1153 22.1314 20.9177 18.4042 21.6445C18.2389 21.6767 18.0778 21.7078 17.919 21.7384C17.7919 21.7629 17.6666 21.7869 17.5436 21.8103C17.5083 21.8171 17.4728 21.8238 17.4378 21.8305C17.2207 21.8717 17.0104 21.9111 16.8059 21.9491C16.7237 21.9644 16.6421 21.9795 16.5619 21.9943C11.8811 22.8566 10.5662 22.872 10.2012 22.8226C10.1998 22.8225 10.1986 22.8223 10.1972 22.822C10.1917 22.8212 10.1862 22.8204 10.1811 22.8197C10.1774 22.819 10.174 22.8184 10.1706 22.8179C10.1681 22.8175 10.1655 22.817 10.1631 22.8167C10.1403 22.8125 10.1226 22.8082 10.1089 22.8041L10.0036 22.7612L10.1348 22.4394C10.2638 22.123 10.2619 21.7753 10.1294 21.4604C10.0963 21.3817 10.0559 21.3073 10.0092 21.2381C9.86892 21.0304 9.67055 20.8687 9.43324 20.7719L5.98196 19.3647C5.66564 19.2356 5.31786 19.2376 5.00295 19.37C4.68795 19.5025 4.44353 19.7497 4.3145 20.0661L0.0942676 30.4163C-0.172041 31.0694 0.142695 31.8174 0.795809 32.0838L4.24718 33.4911C4.40477 33.5553 4.5678 33.5857 4.72838 33.5857C5.23314 33.5857 5.71249 33.285 5.91455 32.7895L5.94628 32.7117L6.74204 33.0361C6.74248 33.0363 6.74292 33.0366 6.74344 33.0367C7.50458 33.3471 8.20585 33.7899 8.81283 34.3394C8.92322 34.4393 9.03044 34.5428 9.13442 34.6495C9.23839 34.7563 9.33894 34.8665 9.43606 34.9799C9.48457 35.0366 9.5323 35.0942 9.57897 35.1524C10.4634 36.2553 11.6229 37.1204 12.9318 37.6542L13.8271 38.0192H7.26938C6.80831 38.0192 6.4331 37.644 6.4331 37.1829V35.557C6.4331 35.2021 6.14544 34.9144 5.79054 34.9144C5.43563 34.9144 5.14797 35.2021 5.14797 35.557V37.1829C5.14797 38.3526 6.09956 39.3043 7.26938 39.3043H16.9789L25.2565 42.6795C25.5415 42.7957 25.8362 42.8508 26.1265 42.8507C27.0388 42.8507 27.9052 42.3071 28.2704 41.4116C28.4201 41.0443 28.4682 40.6604 28.4279 40.2913C28.8584 40.3531 29.3048 40.2964 29.7095 40.1217C30.1207 39.9441 30.4616 39.6611 30.7036 39.3042H42.8782C44.0479 39.3042 44.9996 38.3526 44.9996 37.1828V7.71911C44.9995 7.71823 44.9994 7.71753 44.9994 7.71665ZM22.3473 3.43357H27.8002L28.6431 7.07654H21.5043L22.3473 3.43357ZM20.1852 7.07654H6.7314L8.15444 3.43357H21.0282L20.1852 7.07654ZM28.809 17.4336H28.8089L25.7185 14.6959C25.5347 14.5331 25.3042 14.4517 25.0739 14.4517C24.8434 14.4517 24.6129 14.5331 24.4291 14.6959L21.3388 17.4336V8.36168H28.809V17.4336ZM4.7268 32.2987L1.2865 30.896L5.50226 20.557L8.94255 21.9598L4.7268 32.2987ZM30.3983 36.1765L29.6608 35.8758C29.6604 35.8756 29.6601 35.8755 29.6597 35.8753C29.6595 35.8753 29.6592 35.8751 29.659 35.875C29.6589 35.875 29.6588 35.8749 29.6587 35.8749L21.9783 32.7433C21.6498 32.6093 21.2747 32.767 21.1407 33.0957C21.0067 33.4243 21.1644 33.7994 21.4931 33.9334L29.1737 37.0651C29.2058 37.0782 29.2368 37.0927 29.2668 37.1086C29.2752 37.1131 29.283 37.1186 29.2913 37.1232C29.3124 37.1352 29.3336 37.1471 29.3535 37.1604C29.3631 37.1668 29.3719 37.1742 29.3812 37.1809C29.3989 37.1935 29.4169 37.206 29.4336 37.2197C29.4437 37.228 29.4528 37.2372 29.4626 37.2458C29.4775 37.2591 29.4928 37.2719 29.5069 37.286C29.5167 37.2957 29.5254 37.3063 29.5347 37.3163C29.5476 37.3302 29.5609 37.3438 29.573 37.3584C29.5822 37.3696 29.5903 37.3814 29.5991 37.3929C29.6101 37.4074 29.6215 37.4215 29.6316 37.4365C29.6401 37.4489 29.6474 37.4621 29.6553 37.4749C29.6645 37.4896 29.6742 37.5041 29.6825 37.5193C29.6901 37.5331 29.6964 37.5474 29.7033 37.5613C29.7107 37.5764 29.7187 37.5911 29.7254 37.6065C29.7318 37.6213 29.737 37.6366 29.7427 37.6516C29.7485 37.6668 29.7548 37.6818 29.7599 37.6972C29.765 37.7128 29.7689 37.7287 29.7732 37.7444C29.7775 37.76 29.7823 37.7753 29.786 37.791C29.7896 37.8069 29.7918 37.8231 29.7947 37.8391C29.7976 37.8551 29.801 37.8709 29.8031 37.8871C29.8052 37.9032 29.806 37.9196 29.8073 37.9358C29.8086 37.9522 29.8106 37.9685 29.8111 37.9848C29.8116 38.0009 29.8108 38.0171 29.8106 38.0333C29.8105 38.05 29.8107 38.0667 29.8097 38.0835C29.8087 38.0994 29.8063 38.1153 29.8046 38.1312C29.8027 38.1484 29.8013 38.1655 29.7985 38.1826C29.796 38.1982 29.792 38.2138 29.7888 38.2294C29.7851 38.2467 29.782 38.264 29.7773 38.2813C29.7733 38.2965 29.7678 38.3116 29.763 38.3267C29.7576 38.3439 29.7526 38.3612 29.7461 38.3781C29.7407 38.3898 29.7353 38.4016 29.7303 38.4134C29.7292 38.4162 29.7286 38.419 29.7275 38.4216C29.6271 38.6534 29.4419 38.8375 29.1999 38.942C28.9336 39.0569 28.6287 39.0609 28.3633 38.9527L27.0025 38.3978C26.9961 38.3953 26.9897 38.3935 26.9834 38.3911C26.977 38.3882 26.9709 38.3849 26.9644 38.3822L20.7175 35.8351C20.3887 35.7011 20.0138 35.8588 19.8799 36.1875C19.7459 36.5162 19.9036 36.8912 20.2323 37.0252L26.4792 39.5724C26.4858 39.5751 26.4926 39.577 26.4994 39.5795C26.5054 39.5821 26.5111 39.5854 26.5173 39.5878C27.0416 39.8017 27.2943 40.4021 27.0805 40.9264C26.8667 41.4509 26.2665 41.7036 25.7419 41.4896L17.3488 38.0673C17.3485 38.0672 17.3481 38.067 17.3478 38.0668L13.4173 36.4641C12.7254 36.182 12.083 35.7904 11.5158 35.3087C11.1755 35.0196 10.8623 34.6982 10.5818 34.3484C10.3054 34.0038 10.0022 33.6824 9.67591 33.387C8.95811 32.7372 8.12886 32.2137 7.22895 31.8466C7.22886 31.8466 7.22878 31.8465 7.22869 31.8465L6.43187 31.5217L8.01891 27.6295L9.51867 23.9513L9.62933 23.9964C9.73348 24.0389 9.88201 24.0992 10.2817 24.1143C10.7811 24.1369 11.6073 24.0848 13.0874 23.8757C14.0942 23.7335 15.3291 23.5278 16.7708 23.2625C16.8063 23.256 16.8415 23.2495 16.8774 23.2429C16.9448 23.2305 17.0129 23.2178 17.0813 23.2051C17.1345 23.1953 17.1879 23.1853 17.2418 23.1752C17.3031 23.1637 17.3647 23.1521 17.4268 23.1405C17.4926 23.1281 17.5592 23.1155 17.6262 23.1028C17.6798 23.0926 17.7334 23.0825 17.7875 23.0722C17.8691 23.0566 17.9522 23.0407 18.0355 23.0247C18.0784 23.0164 18.1209 23.0084 18.1641 23.0001C18.2917 22.9755 18.421 22.9505 18.5527 22.925C22.267 22.2025 25.8521 21.3984 26.0132 21.3622C26.0292 21.3588 26.0453 21.3569 26.0614 21.3545C26.4742 21.2934 26.8785 21.5322 26.9969 21.9173C27.0385 22.0526 27.0433 22.1907 27.0171 22.3206C26.9596 22.6065 26.7518 22.8532 26.4548 22.9451L20.0843 24.9168C19.825 24.9971 19.6441 25.2315 19.6324 25.5028C19.6206 25.7739 19.7804 26.0233 20.0318 26.1257L31.6952 30.8816C31.9492 30.9851 32.1477 31.1814 32.254 31.4342C32.3604 31.6871 32.3619 31.9662 32.2583 32.2202C32.1547 32.4742 31.9585 32.6726 31.7057 32.779C31.5793 32.8321 31.4463 32.8589 31.3131 32.8597C31.3112 32.8597 31.3093 32.8595 31.3073 32.8595C31.276 32.8595 31.2448 32.8582 31.2136 32.8553C31.2044 32.8545 31.1953 32.8525 31.186 32.8515C31.1622 32.8486 31.1384 32.8458 31.1148 32.8413C31.0998 32.8384 31.0851 32.834 31.0702 32.8305C31.0525 32.8263 31.0346 32.8226 31.017 32.8175C30.9988 32.8121 30.981 32.805 30.9631 32.7986C30.9488 32.7935 30.9343 32.7892 30.9203 32.7835L23.239 29.6515C22.9104 29.5174 22.5354 29.6752 22.4014 30.0039C22.2674 30.3325 22.4251 30.7076 22.7538 30.8416L32.0663 34.6387C32.1298 34.6646 32.1898 34.6963 32.2458 34.7332C32.4138 34.844 32.5454 35.0017 32.6251 35.1914C32.7182 35.4126 32.731 35.6539 32.6633 35.881C32.6536 35.9134 32.6423 35.9456 32.6294 35.9773C32.616 36.0101 32.6012 36.0418 32.5849 36.0724C32.547 36.1436 32.5009 36.2079 32.4494 36.2665C32.4174 36.3029 32.3832 36.3369 32.3468 36.368C32.341 36.3729 32.3357 36.3785 32.3299 36.3833C32.0954 36.575 31.7819 36.6575 31.4756 36.5956C31.4134 36.583 31.3516 36.5652 31.2908 36.5404L30.3983 36.1765Z" fill="#DA2128"/>
</g>
<defs>
<clipPath id="clip0">
<rect width="45" height="45" fill="white"/>
</clipPath>
</defs>
</svg>
