<svg width="30" height="30" viewBox="0 0 30 30" fill="none" xmlns="http://www.w3.org/2000/svg">
<path d="M9.99996 15.0001C9.99939 14.708 10.1011 14.425 10.2875 14.2001L16.5375 6.7001C16.7496 6.44483 17.0545 6.2843 17.3851 6.25382C17.7156 6.22335 18.0447 6.32543 18.3 6.5376C18.5552 6.74977 18.7158 7.05466 18.7462 7.3852C18.7767 7.71573 18.6746 8.04483 18.4625 8.3001L12.8625 15.0001L18.2625 21.7001C18.3663 21.828 18.4438 21.9751 18.4906 22.133C18.5374 22.2909 18.5525 22.4565 18.5351 22.6203C18.5177 22.7841 18.4681 22.9428 18.3891 23.0874C18.3101 23.2319 18.2034 23.3594 18.075 23.4626C17.9464 23.5771 17.7957 23.6638 17.6321 23.7173C17.4685 23.7708 17.2956 23.7899 17.1243 23.7735C16.9529 23.757 16.7868 23.7054 16.6364 23.6218C16.486 23.5382 16.3544 23.4244 16.25 23.2876L10.2125 15.7876C10.0556 15.5562 9.98075 15.279 9.99996 15.0001Z"/>
</svg>
