<svg width="16" height="16" viewBox="0 0 16 16" fill="none" xmlns="http://www.w3.org/2000/svg">
<path d="M14.1697 7.30792C14.4857 7.72125 14.4857 8.27925 14.1697 8.69192C13.1744 9.99125 10.7864 12.6666 7.99838 12.6666C5.21038 12.6666 2.82238 9.99125 1.82705 8.69192C1.6733 8.49401 1.58984 8.25053 1.58984 7.99992C1.58984 7.74931 1.6733 7.50583 1.82705 7.30792C2.82238 6.00859 5.21038 3.33325 7.99838 3.33325C10.7864 3.33325 13.1744 6.00859 14.1697 7.30792V7.30792Z" stroke="#262626" stroke-linecap="round" stroke-linejoin="round"/>
<path d="M8 10C9.10457 10 10 9.10457 10 8C10 6.89543 9.10457 6 8 6C6.89543 6 6 6.89543 6 8C6 9.10457 6.89543 10 8 10Z" stroke="#262626" stroke-linecap="round" stroke-linejoin="round"/>
</svg>
