<svg width="45" height="45" viewBox="0 0 45 45" fill="none" xmlns="http://www.w3.org/2000/svg">
<path d="M37.0024 0C36.1431 0 35.4103 0.551162 35.1382 1.31836H24.4774V0.65918C24.4774 0.295137 24.1824 0 23.8182 0H21.1815C20.8174 0 20.5223 0.295137 20.5223 0.65918V1.31836H9.86157C9.58946 0.551162 8.85671 0 7.99741 0C6.90703 0 6.01987 0.88708 6.01987 1.97754C6.01987 3.068 6.90703 3.95508 7.99741 3.95508C8.85671 3.95508 9.58946 3.40392 9.86157 2.63672H20.5223V3.2959C20.5223 3.65994 20.8174 3.95508 21.1815 3.95508H23.8182C24.1824 3.95508 24.4774 3.65994 24.4774 3.2959V2.63672H35.1382C35.4103 3.40392 36.1431 3.95508 37.0024 3.95508C38.0927 3.95508 38.9799 3.068 38.9799 1.97754C38.9799 0.88708 38.0927 0 37.0024 0ZM7.99741 2.63672C7.63389 2.63672 7.33823 2.34105 7.33823 1.97754C7.33823 1.61402 7.63389 1.31836 7.99741 1.31836C8.36092 1.31836 8.65659 1.61402 8.65659 1.97754C8.65659 2.34105 8.36092 2.63672 7.99741 2.63672ZM23.1591 2.63672H21.8407V1.31836H23.1591V2.63672ZM37.0024 2.63672C36.6389 2.63672 36.3432 2.34105 36.3432 1.97754C36.3432 1.61402 36.6389 1.31836 37.0024 1.31836C37.3659 1.31836 37.6615 1.61402 37.6615 1.97754C37.6615 2.34105 37.3659 2.63672 37.0024 2.63672Z" />
<path d="M33.6212 22.9229L24.2209 6.27688C23.869 5.65796 23.2095 5.27344 22.4999 5.27344C21.7895 5.27344 21.1301 5.65822 20.7792 6.27768L20.783 6.27987C20.7446 6.33867 11.3786 22.9229 11.3786 22.9229C11.2869 23.0852 11.2682 23.2787 11.3271 23.4555L15.0571 34.6455C14.3912 34.9641 13.93 35.6446 13.93 36.4308C13.93 37.1238 14.2887 37.7343 14.8298 38.0875L12.2162 41.5723C11.621 42.3658 11.2933 43.349 11.2933 44.3408C11.2933 44.7049 11.5884 45 11.9525 45H33.0462C33.4104 45 33.7054 44.7049 33.7054 44.3408C33.7054 43.349 33.3777 42.3657 32.7826 41.5723L30.169 38.0874C30.7101 37.7342 31.0687 37.1237 31.0687 36.4307C31.0687 35.6446 30.6076 34.964 29.9417 34.6454L33.6726 23.4555C33.7316 23.2787 33.7129 23.0853 33.6212 22.9229ZM23.1591 20.6104V25.8838C23.1591 26.2473 22.8634 26.543 22.4999 26.543C22.1364 26.543 21.8407 26.2473 21.8407 25.8838V20.6104C21.8407 20.2468 22.1364 19.9512 22.4999 19.9512C22.8634 19.9512 23.1591 20.2468 23.1591 20.6104ZM32.3197 43.6816H12.6792C12.7769 43.2062 12.9788 42.7527 13.2708 42.3633L16.2372 38.4082H28.7616L31.728 42.3633C32.02 42.7527 32.2219 43.2062 32.3197 43.6816ZM28.6161 34.4531H18.5443C18.1801 34.4531 17.8851 34.7483 17.8851 35.1123C17.8851 35.4763 18.1801 35.7715 18.5443 35.7715H29.076C29.0846 35.7717 29.0934 35.7717 29.1021 35.7716C29.4606 35.7774 29.7503 36.0708 29.7503 36.4307C29.7503 36.7942 29.4547 37.0898 29.0912 37.0898H15.9076C15.544 37.0898 15.2484 36.7942 15.2484 36.4307C15.2484 36.0671 15.544 35.7715 15.9076 35.7715C16.1195 35.7715 16.3185 35.6696 16.4423 35.4977C16.5662 35.3258 16.6 35.1048 16.5329 34.9038L12.6704 23.3163C13.7846 21.3435 20.9758 8.60994 21.8407 7.07889V18.7462C21.0735 19.0183 20.5223 19.751 20.5223 20.6104V25.8838C20.5223 26.9742 21.4095 27.8613 22.4999 27.8613C23.5903 27.8613 24.4774 26.9742 24.4774 25.8838V20.6104C24.4774 19.751 23.9263 19.0183 23.1591 18.7462V7.07757L32.3293 23.3163L28.6161 34.4531Z" />
</svg>
