<svg width="12" height="18" viewBox="0 0 12 18" fill="none" xmlns="http://www.w3.org/2000/svg">
<path d="M5.99957 8C6.53001 8 7.03871 7.78929 7.41379 7.41421C7.78886 7.03914 7.99957 6.53043 7.99957 6C7.99957 5.46957 7.78886 4.96086 7.41379 4.58579C7.03871 4.21071 6.53001 4 5.99957 4C5.46914 4 4.96043 4.21071 4.58536 4.58579C4.21029 4.96086 3.99957 5.46957 3.99957 6C3.99957 6.53043 4.21029 7.03914 4.58536 7.41421C4.96043 7.78929 5.46914 8 5.99957 8Z" fill="#DA2128"/>
<path fill-rule="evenodd" clip-rule="evenodd" d="M11.9996 6C11.9994 7.41797 11.4972 8.79009 10.582 9.87315C9.66676 10.9562 8.39764 11.6803 6.99957 11.917V17C6.99957 17.2652 6.89421 17.5196 6.70668 17.7071C6.51914 17.8946 6.26479 18 5.99957 18C5.73435 18 5.48 17.8946 5.29246 17.7071C5.10493 17.5196 4.99957 17.2652 4.99957 17V11.917C3.5195 11.6623 2.18872 10.8619 1.26992 9.67391C0.351117 8.48593 -0.0889256 6.99666 0.0366573 5.50009C0.16224 4.00352 0.844322 2.6084 1.94825 1.59016C3.05219 0.571908 4.49775 0.00452038 5.99957 0C7.59087 0 9.11699 0.632141 10.2422 1.75736C11.3674 2.88258 11.9996 4.4087 11.9996 6ZM5.99957 10C7.06044 10 8.07785 9.57857 8.828 8.82843C9.57814 8.07828 9.99957 7.06087 9.99957 6C9.99957 4.93913 9.57814 3.92172 8.828 3.17157C8.07785 2.42143 7.06044 2 5.99957 2C4.93871 2 3.92129 2.42143 3.17114 3.17157C2.421 3.92172 1.99957 4.93913 1.99957 6C1.99957 7.06087 2.421 8.07828 3.17114 8.82843C3.92129 9.57857 4.93871 10 5.99957 10Z" fill="#262626"/>
</svg>
