<svg width="28" height="28" viewBox="0 0 28 28" fill="none" xmlns="http://www.w3.org/2000/svg">
<path d="M25.6667 12.3337H15.6667V2.33366C15.6667 1.89163 15.4911 1.46771 15.1785 1.15515C14.8659 0.842587 14.442 0.666992 14 0.666992C13.558 0.666992 13.134 0.842587 12.8215 1.15515C12.5089 1.46771 12.3333 1.89163 12.3333 2.33366V12.3337H2.33332C1.8913 12.3337 1.46737 12.5093 1.15481 12.8218C0.842252 13.1344 0.666656 13.5583 0.666656 14.0003C0.666656 14.4424 0.842252 14.8663 1.15481 15.1788C1.46737 15.4914 1.8913 15.667 2.33332 15.667H12.3333V25.667C12.3333 26.109 12.5089 26.5329 12.8215 26.8455C13.134 27.1581 13.558 27.3337 14 27.3337C14.442 27.3337 14.8659 27.1581 15.1785 26.8455C15.4911 26.5329 15.6667 26.109 15.6667 25.667V15.667H25.6667C26.1087 15.667 26.5326 15.4914 26.8452 15.1788C27.1577 14.8663 27.3333 14.4424 27.3333 14.0003C27.3333 13.5583 27.1577 13.1344 26.8452 12.8218C26.5326 12.5093 26.1087 12.3337 25.6667 12.3337Z" fill="black"/>
</svg>
