<svg width="45" height="45" viewBox="0 0 45 45" fill="none" xmlns="http://www.w3.org/2000/svg">
<path d="M43.5439 4.23044H43.6377C44.3889 4.23044 45 3.61934 45 2.86813V1.3623C45 0.611104 44.3889 0 43.6377 0H7.66406C7.30002 0 7.00488 0.295137 7.00488 0.65918C7.00488 1.02322 7.30002 1.31836 7.66406 1.31836H43.6377C43.662 1.31836 43.6816 1.33805 43.6816 1.3623V2.86813C43.6816 2.89239 43.662 2.91208 43.6377 2.91208H42.8847H2.11526H1.3623C1.33805 2.91208 1.31836 2.89239 1.31836 2.86813V1.3623C1.31836 1.33805 1.33805 1.31836 1.3623 1.31836H5.02734C5.39139 1.31836 5.68652 1.02322 5.68652 0.65918C5.68652 0.295137 5.39139 0 5.02734 0H1.3623C0.611104 0 0 0.611104 0 1.3623V2.86813C0 3.61934 0.611104 4.23044 1.3623 4.23044H1.45608V28.4619C1.45608 28.8259 1.75122 29.1211 2.11526 29.1211C2.47931 29.1211 2.77444 28.8259 2.77444 28.4619V20.2471H13.7637C14.1277 20.2471 14.4229 19.952 14.4229 19.5879C14.4229 19.2239 14.1277 18.9287 13.7637 18.9287H11.5108V17.335H16.6758C17.0399 17.335 17.335 17.0399 17.335 16.6758C17.335 16.3118 17.0399 16.0167 16.6758 16.0167H14.4229V14.4229H19.6789C20.0429 14.4229 20.3381 14.1277 20.3381 13.7637C20.3381 13.3996 20.0429 13.1045 19.6789 13.1045H11.5107V10.8516C11.5107 10.4875 11.2155 10.1924 10.8515 10.1924C10.4875 10.1924 10.1923 10.4875 10.1923 10.8516V13.1045H2.77436V4.23044H23.2968V20.4293C20.8353 20.7533 18.9287 22.8635 18.9287 25.4121C18.9287 28.1842 21.1839 30.4394 23.956 30.4394H24.7528V35.6045C24.7528 36.7708 25.7017 37.7197 26.8681 37.7197C28.0344 37.7197 28.9833 36.7708 28.9833 35.6045V34.1484C28.9833 33.709 29.3407 33.3516 29.7802 33.3516C30.2195 33.3516 30.577 33.709 30.577 34.1484V37.0605C30.577 38.2269 31.5258 39.1758 32.6922 39.1758C33.8586 39.1758 34.8074 38.2269 34.8074 37.0605V30.4394H36.4011V37.0605C36.4011 38.2269 37.35 39.1758 38.5164 39.1758C39.6827 39.1758 40.6316 38.2269 40.6316 37.0605V29.9711C41.2378 29.6888 41.7791 29.2897 42.2253 28.8018V40.7695H2.77444V36.2637H4.36816V38.5166C4.36816 38.8806 4.6633 39.1758 5.02734 39.1758C5.39139 39.1758 5.68652 38.8806 5.68652 38.5166V36.2637H10.1924V38.5166C10.1924 38.8806 10.4875 39.1758 10.8516 39.1758C11.2156 39.1758 11.5108 38.8806 11.5108 38.5166V36.2637H16.6758C17.0399 36.2637 17.335 35.9685 17.335 35.6045C17.335 35.2404 17.0399 34.9453 16.6758 34.9453H14.4229V33.3516H19.6789C20.0429 33.3516 20.3381 33.0565 20.3381 32.6924C20.3381 32.3284 20.0429 32.0332 19.6789 32.0332H11.5107V29.7803C11.5107 29.4163 11.2155 29.1212 10.8515 29.1212C10.4875 29.1212 10.1923 29.4163 10.1923 29.7803V32.0332H2.77436V31.0986C2.77436 30.7346 2.47922 30.4394 2.11518 30.4394C1.75113 30.4394 1.456 30.7346 1.456 31.0986V40.7696H1.3623C0.611104 40.7696 0 41.3807 0 42.1319V43.6377C0 44.3889 0.611104 45 1.3623 45H43.6377C44.3889 45 45 44.3889 45 43.6377V42.1319C45 41.3807 44.3889 40.7696 43.6377 40.7696H43.5439V4.23044ZM2.77444 17.3349H4.36816V18.9287H2.77444V17.3349ZM10.1924 18.9287H5.68652V17.335H10.1924V18.9287ZM13.1045 16.0166H8.59869V14.4229H13.1045V16.0166ZM7.28033 14.4229V16.0166H2.77444V14.4229H7.28033ZM13.1045 34.9453H8.59869V33.3516H13.1045V34.9453ZM7.28033 33.3516V34.9453H2.77444V33.3516H7.28033ZM43.6816 42.1319V43.6377C43.6816 43.662 43.662 43.6816 43.6377 43.6816H1.3623C1.33805 43.6816 1.31836 43.662 1.31836 43.6377V42.1319C1.31836 42.1076 1.33805 42.0879 1.3623 42.0879H43.6377C43.662 42.0879 43.6816 42.1076 43.6816 42.1319ZM20.2471 25.4121C20.2471 23.367 21.911 21.7031 23.9561 21.7031H35.1268C34.1212 22.623 33.4892 23.945 33.4892 25.4121C33.4892 26.8792 34.1212 28.2012 35.1268 29.1211H23.9561C21.911 29.1211 20.2471 27.4572 20.2471 25.4121ZM33.4892 37.0606C33.4892 37.4999 33.1318 37.8575 32.6924 37.8575C32.253 37.8575 31.8955 37.5 31.8955 37.0606V34.1485C31.8955 32.9822 30.9466 32.0333 29.7803 32.0333C28.6139 32.0333 27.6651 32.9822 27.6651 34.1485V35.6045C27.6651 36.0439 27.3076 36.4013 26.8683 36.4013C26.4289 36.4013 26.0713 36.0439 26.0713 35.6045V30.4394H33.4893V37.0606H33.4892ZM39.3135 37.0606C39.3135 37.4999 38.956 37.8575 38.5167 37.8575C38.0772 37.8575 37.7198 37.5 37.7198 37.0606V30.4395H38.5167C38.7878 30.4395 39.0538 30.4173 39.3135 30.3757V37.0606ZM38.5166 29.1211C36.4714 29.1211 34.8076 27.4572 34.8076 25.4121C34.8076 23.367 36.4714 21.7031 38.5166 21.7031C40.5617 21.7031 42.2256 23.367 42.2256 25.4121C42.2256 27.4572 40.5617 29.1211 38.5166 29.1211ZM38.5166 20.3847H24.6153V4.23044H42.2256V22.0222C41.3057 21.0167 39.9836 20.3847 38.5166 20.3847Z" />
<path d="M38.5166 23.2969C37.3502 23.2969 36.4013 24.2457 36.4013 25.4121C36.4013 26.5784 37.3502 27.5273 38.5166 27.5273C39.683 27.5273 40.6317 26.5784 40.6317 25.4121C40.6318 24.2457 39.683 23.2969 38.5166 23.2969ZM38.5166 26.209C38.0771 26.209 37.7197 25.8515 37.7197 25.4121C37.7197 24.9727 38.0771 24.6152 38.5166 24.6152C38.9559 24.6152 39.3134 24.9727 39.3134 25.4121C39.3135 25.8515 38.9559 26.209 38.5166 26.209Z" />
<path d="M29.781 10.1924H28.9841V9.39551C28.9841 9.03147 28.6889 8.73633 28.3249 8.73633C27.9608 8.73633 27.6657 9.03147 27.6657 9.39551V10.1924H26.8689C26.5049 10.1924 26.2097 10.4876 26.2097 10.8516C26.2097 11.2156 26.5049 11.5108 26.8689 11.5108H27.6657V12.3076C27.6657 12.6716 27.9608 12.9668 28.3249 12.9668C28.6889 12.9668 28.9841 12.6716 28.9841 12.3076V11.5108H29.781C30.145 11.5108 30.4402 11.2156 30.4402 10.8516C30.4402 10.4876 30.1451 10.1924 29.781 10.1924Z" />
<path d="M34.148 16.0166H33.3512V15.2197C33.3512 14.8557 33.0561 14.5605 32.692 14.5605C32.328 14.5605 32.0329 14.8557 32.0329 15.2197V16.0166H31.236C30.8719 16.0166 30.5768 16.3118 30.5768 16.6758C30.5768 17.0399 30.8719 17.335 31.236 17.335H32.0329V18.1318C32.0329 18.4958 32.328 18.791 32.692 18.791C33.0561 18.791 33.3512 18.4958 33.3512 18.1318V17.335H34.148C34.5121 17.335 34.8072 17.0399 34.8072 16.6758C34.8072 16.3118 34.5121 16.0166 34.148 16.0166Z" />
</svg>
