<svg width="20" height="20" viewBox="0 0 20 20" fill="none" xmlns="http://www.w3.org/2000/svg">
<path d="M11.2696 1.26953C7.03805 1.26953 3.50293 4.29629 2.70844 8.29684L1.04898 6.22234L0 7.0618L2.68629 10.4196C2.81723 10.5829 3.01199 10.6715 3.21078 10.6715C3.31219 10.6715 3.41492 10.6486 3.51098 10.601L7.54039 8.58625L6.93934 7.38481L3.9784 8.86496C4.52773 5.32981 7.5827 2.61266 11.2696 2.61266C15.3427 2.61266 18.6569 5.92684 18.6569 9.99992C18.6569 14.073 15.3427 17.3872 11.2696 17.3872V18.7303C16.0834 18.7303 20 14.8137 20 9.99992C20 5.18613 16.0834 1.26953 11.2696 1.26953Z" fill="#262626"/>
<path d="M10.4625 13.258V14.5285H6.2415V13.258H7.6905V8.407C7.6135 8.512 7.477 8.638 7.281 8.785C7.085 8.925 6.868 9.0475 6.63 9.1525C6.399 9.2575 6.189 9.31 6 9.31V8.008C6.182 8.008 6.371 7.959 6.567 7.861C6.763 7.763 6.945 7.651 7.113 7.525C7.281 7.392 7.4175 7.2765 7.5225 7.1785C7.6345 7.0735 7.6905 7.014 7.6905 7H9.129V13.258H10.4625Z" fill="#DA2128"/>
<path d="M14.1085 14.5285V12.838H10.969V11.578L14.5495 7.0735H15.5155V11.5675H16.4395V12.838H15.5155V14.5285H14.1085ZM12.3865 11.5675H14.266V9.1945L12.3865 11.5675Z" fill="#DA2128"/>
</svg>
