<svg width="30" height="30" viewBox="0 0 30 30" fill="none" xmlns="http://www.w3.org/2000/svg">
<path d="M14.8171 6.6582V11.4143H10.7927V6.6582H8.59764V12.5118C8.59764 13.118 9.08901 13.6094 9.69522 13.6094H15.9147C16.5209 13.6094 17.0123 13.118 17.0123 12.5118V6.6582H14.8171Z"   />
<path d="M28.9024 1.1709H5.48783C5.19697 1.1709 4.91748 1.2865 4.71187 1.49246L0.321562 5.88271C0.115605 6.08832 0 6.36781 0 6.65867V27.7319C0 28.3381 0.491367 28.8294 1.09758 28.8294H24.5122C24.8034 28.8294 25.0826 28.7135 25.2882 28.5079L29.6784 24.1176C29.8844 23.912 30 23.6329 30 23.3417V2.26842C30 1.66221 29.5086 1.1709 28.9024 1.1709ZM27.8049 22.8872L24.0578 26.6343H2.1951V7.11342L5.94252 3.366H27.8048V22.8872H27.8049Z"   />
<path d="M28.1265 1.49219L24.0579 5.56082H1.09764V7.75591H24.5123C24.8035 7.75591 25.0826 7.64031 25.2882 7.43435L29.6785 3.0441L28.1265 1.49219Z"   />
<path d="M25.6099 6.6582H23.4148V27.7314H25.6099V6.6582Z"   />
</svg>
