<svg width="21" height="21" viewBox="0 0 21 21" fill="none" xmlns="http://www.w3.org/2000/svg">
<g clip-path="url(#clip0)">
<path d="M20.325 5.04625C20.1766 4.86375 19.9539 4.75781 19.7188 4.75781H5.56781L5.50984 4.22531L5.50777 4.2082C5.23043 2.09422 3.4134 0.5 1.28125 0.5C0.849766 0.5 0.5 0.849766 0.5 1.28125C0.5 1.71273 0.849766 2.0625 1.28125 2.0625C2.62914 2.0625 3.77824 3.06832 3.9575 4.40344L4.88613 12.9347C4.07402 13.3033 3.50781 14.122 3.50781 15.0703C3.50781 15.0768 3.50789 15.0834 3.50805 15.0898C3.50789 15.0963 3.50781 15.1029 3.50781 15.1094C3.50781 16.4017 4.55922 17.4531 5.85156 17.4531H6.16945C6.09 17.6861 6.04688 17.9357 6.04688 18.1953C6.04688 19.4661 7.08074 20.5 8.35156 20.5C9.62238 20.5 10.6562 19.4661 10.6562 18.1953C10.6562 17.9357 10.6131 17.6861 10.5337 17.4531H13.9039C13.8244 17.6861 13.7813 17.9357 13.7813 18.1953C13.7813 19.4661 14.8152 20.5 16.086 20.5C17.3568 20.5 18.3907 19.4661 18.3907 18.1953C18.3907 16.9245 17.3568 15.8906 16.086 15.8906H5.85156C5.42078 15.8906 5.07031 15.5402 5.07031 15.1094C5.07031 15.1029 5.07023 15.0963 5.07008 15.0898C5.07023 15.0834 5.07031 15.0768 5.07031 15.0703C5.07031 14.6395 5.42078 14.2891 5.85156 14.2891H15.8254C17.2123 14.2891 18.485 13.431 19.0679 12.103C19.2413 11.708 19.0616 11.2471 18.6665 11.0737C18.2714 10.9003 17.8105 11.08 17.6371 11.475C17.3086 12.2236 16.5805 12.7266 15.8254 12.7266H6.43519L5.73789 6.32031H18.7577L18.3755 8.15297C18.2874 8.57535 18.5584 8.98918 18.9807 9.07727C19.0345 9.08852 19.0882 9.09391 19.1411 9.09391C19.5032 9.09391 19.8282 8.84062 19.905 8.47203L20.4835 5.69859C20.5316 5.46836 20.4733 5.22875 20.325 5.04625ZM16.0859 17.4531C16.4952 17.4531 16.8281 17.7861 16.8281 18.1953C16.8281 18.6046 16.4952 18.9375 16.0859 18.9375C15.6767 18.9375 15.3438 18.6046 15.3438 18.1953C15.3438 17.7861 15.6767 17.4531 16.0859 17.4531ZM8.35156 17.4531C8.76082 17.4531 9.09375 17.7861 9.09375 18.1953C9.09375 18.6046 8.76082 18.9375 8.35156 18.9375C7.9423 18.9375 7.60938 18.6046 7.60938 18.1953C7.60938 17.7861 7.9423 17.4531 8.35156 17.4531Z" fill="#DA2128"/>
</g>
<defs>
<clipPath id="clip0">
<rect width="20" height="20" fill="white" transform="translate(0.5 0.5)"/>
</clipPath>
</defs>
</svg>
