<svg width="40" height="32" viewBox="0 0 40 32" fill="none" xmlns="http://www.w3.org/2000/svg">
<path d="M32.8647 17.2222C36.5495 17.2222 39.5366 14.2351 39.5366 10.5503C39.5366 6.86552 36.5495 3.87842 32.8647 3.87842C29.18 3.87842 26.1929 6.86552 26.1929 10.5503C26.1929 14.2351 29.18 17.2222 32.8647 17.2222Z" fill="#DA2128"/>
<path d="M27.7554 10.5503C27.7554 7.12983 30.3294 4.31053 33.646 3.92373C33.3897 3.89381 33.129 3.87842 32.8647 3.87842C29.18 3.87842 26.1929 6.86553 26.1929 10.5503C26.1929 14.2351 29.18 17.2222 32.8647 17.2222C33.129 17.2222 33.3897 17.2068 33.646 17.1769C30.3294 16.79 27.7554 13.9708 27.7554 10.5503Z" fill="#DA2128"/>
<path d="M39.5255 11.2514C39.2079 11.1901 38.9005 11.3976 38.839 11.7152C38.2869 14.5666 35.7745 16.6363 32.865 16.6363C29.5092 16.6363 26.7791 13.9061 26.7791 10.5503C26.7791 7.19453 29.5092 4.46438 32.865 4.46438C35.7745 4.46438 38.287 6.53391 38.839 9.38539C38.9005 9.70289 39.2077 9.91031 39.5255 9.84914C39.843 9.78766 40.0507 9.48031 39.9892 9.16266C39.3307 5.76141 36.3346 3.29281 32.865 3.29281C30.8153 3.29281 28.9616 4.14719 27.6405 5.5182V1.4432C27.6405 1.11961 27.3783 0.857422 27.0548 0.857422H11.6992C11.3756 0.857422 11.1134 1.11969 11.1134 1.4432C11.1134 1.76672 11.3757 2.02898 11.6992 2.02898H26.469V7.12352C25.3203 9.40805 25.3203 11.6926 26.469 13.9771V15.9102L21.1241 20.7208L21.0759 20.7641H12.3186L6.92563 15.9104L6.92539 2.02898H9.14672C9.47031 2.02898 9.7325 1.76672 9.7325 1.4432C9.7325 1.11969 9.47023 0.857422 9.14672 0.857422H6.33961C6.01602 0.857422 5.75383 1.11969 5.75383 1.4432V7.20867L0.284453 10.4903C0.111016 10.5941 0 10.7909 0 10.9927V30.5566C0 30.8734 0.268125 31.1428 0.585547 31.1428H20.7203C21.0439 31.1428 21.3061 30.8805 21.3061 30.557C21.3061 30.2335 21.0438 29.9712 20.7203 29.9712H2.25547L12.2995 21.9358H21.0952L31.1389 29.9712H23.2728C22.9492 29.9712 22.687 30.2335 22.687 30.557C22.687 30.8805 22.9493 31.1428 23.2728 31.1428H32.8088C33.126 31.1428 33.3945 30.8741 33.3945 30.557V17.787C36.6353 17.5505 39.3645 15.1647 39.9891 11.9379C40.0507 11.6203 39.843 11.3129 39.5255 11.2514ZM22.2055 21.3237L22.2357 21.2966L28.0992 16.0192C29.2237 17.0004 30.6523 17.6409 32.223 17.7792V29.3382L22.2055 21.3237ZM1.17156 29.3378V12.308L11.1887 21.3237L1.17156 29.3378ZM5.75383 14.8557L1.56672 11.0873L5.75383 8.57492V14.8557Z" fill="black"/>
<path d="M31.5304 12.6332C31.2068 12.6332 30.9447 12.8954 30.9447 13.2189C30.9447 13.5425 31.2069 13.8047 31.5304 13.8047H34.1992C34.5228 13.8047 34.785 13.5425 34.785 13.2189C34.785 12.8954 34.5227 12.6332 34.1992 12.6332H33.4506V7.88144C33.4506 7.55784 33.1883 7.29565 32.8648 7.29565H31.5304C31.2068 7.29565 30.9446 7.55792 30.9446 7.88144C30.9446 8.20495 31.2068 8.46722 31.5304 8.46722H32.279V12.6332H31.5304Z" fill="white"/>
<path d="M10.4231 6.89031H22.6453C22.9689 6.89031 23.2311 6.62805 23.2311 6.30453C23.2311 5.98102 22.9688 5.71875 22.6453 5.71875H10.4231C10.0995 5.71875 9.83728 5.98102 9.83728 6.30453C9.83728 6.62805 10.0995 6.89031 10.4231 6.89031Z" fill="black"/>
<path d="M10.4231 9.23455H22.6453C22.9689 9.23455 23.2311 8.97228 23.2311 8.64877C23.2311 8.32525 22.9688 8.06299 22.6453 8.06299H10.4231C10.0995 8.06299 9.83728 8.32525 9.83728 8.64877C9.83728 8.97228 10.0995 9.23455 10.4231 9.23455Z" fill="black"/>
<path d="M10.4231 11.7426H22.6453C22.9689 11.7426 23.2311 11.4803 23.2311 11.1568C23.2311 10.8333 22.9688 10.571 22.6453 10.571H10.4231C10.0995 10.571 9.83728 10.8333 9.83728 11.1568C9.83728 11.4803 10.0995 11.7426 10.4231 11.7426Z" fill="black"/>
<path d="M10.4231 14.1686H22.6453C22.9689 14.1686 23.2311 13.9064 23.2311 13.5829C23.2311 13.2593 22.9688 12.9971 22.6453 12.9971H10.4231C10.0995 12.9971 9.83728 13.2593 9.83728 13.5829C9.83728 13.9064 10.0995 14.1686 10.4231 14.1686Z" fill="black"/>
<path d="M10.4231 16.5854H22.6453C22.9689 16.5854 23.2311 16.3231 23.2311 15.9996C23.2311 15.6761 22.9688 15.4138 22.6453 15.4138H10.4231C10.0995 15.4138 9.83728 15.6761 9.83728 15.9996C9.83728 16.3231 10.0995 16.5854 10.4231 16.5854Z" fill="black"/>
</svg>
