<svg width="16" height="16" viewBox="0 0 16 16" fill="none" xmlns="http://www.w3.org/2000/svg">
<path d="M10.1651 10.74L11.2851 9.62002C11.4359 9.47104 11.6268 9.36906 11.8345 9.32646C12.0422 9.28385 12.2577 9.30246 12.4551 9.38002L13.8201 9.92502C14.0195 10.006 14.1905 10.1441 14.3115 10.3221C14.4325 10.5 14.4981 10.7098 14.5001 10.925V13.425C14.4989 13.5714 14.4681 13.7161 14.4096 13.8502C14.3511 13.9844 14.266 14.1054 14.1595 14.2058C14.053 14.3062 13.9272 14.3841 13.7899 14.4346C13.6525 14.4852 13.5063 14.5074 13.3601 14.5C3.79507 13.905 1.86507 5.80502 1.50007 2.70502C1.48312 2.55279 1.4986 2.39869 1.54549 2.25288C1.59238 2.10706 1.66961 1.97282 1.7721 1.85899C1.87459 1.74516 2.00003 1.65432 2.14015 1.59245C2.28027 1.53058 2.4319 1.49908 2.58507 1.50002H5.00007C5.21557 1.50066 5.42596 1.56575 5.60416 1.68694C5.78237 1.80812 5.92025 1.97984 6.00007 2.18002L6.54507 3.54502C6.62519 3.74155 6.64564 3.95734 6.60384 4.16543C6.56205 4.37351 6.45987 4.56467 6.31007 4.71502L5.19007 5.83502C5.19007 5.83502 5.83507 10.2 10.1651 10.74Z" fill="#262626"/>
</svg>
