<svg width="25" height="25" viewBox="0 0 25 25" fill="none" xmlns="http://www.w3.org/2000/svg">
<path d="M20.8333 0H4.16667C3.47636 0 2.91667 0.559692 2.91667 1.25V23.75C2.91667 24.4403 3.47636 25 4.16667 25H20.8333C21.5236 25 22.0833 24.4403 22.0833 23.75V1.25C22.0833 0.559692 21.5236 0 20.8333 0ZM21.25 23.75C21.25 23.9801 21.0634 24.1667 20.8333 24.1667H4.16667C3.93657 24.1667 3.75001 23.9801 3.75001 23.75V1.25C3.75001 1.0199 3.93657 0.833333 4.16667 0.833333H20.8333C21.0634 0.833333 21.25 1.0199 21.25 1.25V23.75Z" />
<path d="M20 1.6665H4.99999C4.76989 1.6665 4.58333 1.85307 4.58333 2.08317V22.9165C4.58333 23.1466 4.76989 23.3332 4.99999 23.3332H20C20.2301 23.3332 20.4167 23.1466 20.4167 22.9165V2.08317C20.4167 1.85307 20.2301 1.6665 20 1.6665ZM19.5833 22.4998H5.41666V2.49984H19.5833V22.4998Z" />
<path d="M6.65161 7.22052C6.76208 7.22052 6.86808 7.17657 6.94621 7.09845L9.89298 4.15166C10.0012 4.04709 10.0448 3.89226 10.0065 3.74659C9.96846 3.60092 9.85473 3.48699 9.70886 3.44895C9.56319 3.4107 9.40836 3.45423 9.30379 3.56247L6.35701 6.50925C6.23799 6.62848 6.20239 6.80751 6.26688 6.96315C6.33118 7.119 6.48315 7.22052 6.65161 7.22052Z" />
<path d="M15.107 21.6817C15.2698 21.8443 15.5335 21.8443 15.6962 21.6817L18.643 18.735C18.8009 18.5716 18.7986 18.3116 18.6379 18.1508C18.4772 17.9901 18.2172 17.9879 18.0538 18.1458L15.107 21.0925C14.9445 21.2553 14.9445 21.519 15.107 21.6817Z" />
<path d="M8.03874 16.9614C8.2015 17.1239 8.46517 17.1239 8.62793 16.9614L16.9613 8.62802C17.1191 8.46444 17.1169 8.20464 16.9562 8.04391C16.7955 7.88318 16.5357 7.88095 16.3721 8.03882L8.03874 16.3722C7.87619 16.5349 7.87619 16.7986 8.03874 16.9614Z" />
</svg>
