<svg width="30" height="30" viewBox="0 0 30 30" fill="none" xmlns="http://www.w3.org/2000/svg">
<g clip-path="url(#clip0)">
<path d="M28.6353 15.1258V10.9094C28.6353 9.47963 27.5263 8.31687 26.1251 8.20412L22.2094 1.36474C21.8465 0.732193 21.2606 0.280091 20.5595 0.0923594C19.8616 -0.0940935 19.1319 0.00383102 18.5074 0.367341L5.08412 8.18213H2.72658C1.22249 8.18213 -0.000671387 9.40523 -0.000671387 10.9094V27.2727C-0.000671387 28.7768 1.22243 30 2.72658 30H25.908C27.4121 30 28.6353 28.7769 28.6353 27.2727V23.0563C29.4272 22.7739 29.9989 22.0242 29.9989 21.1365V17.0456C29.9989 16.1579 29.4272 15.4082 28.6353 15.1258ZM24.5406 8.18213H18.598L23.055 5.58726L24.5406 8.18213ZM22.3775 4.40392L15.8878 8.18213H13.196L21.7044 3.22837L22.3775 4.40392ZM19.1938 1.54582C19.5021 1.36538 19.8623 1.31744 20.2066 1.40935C20.5548 1.50255 20.8451 1.72761 21.0256 2.04254L21.027 2.04503L10.486 8.18213H7.7943L19.1938 1.54582ZM27.2716 27.2727C27.2716 28.0244 26.6597 28.6363 25.908 28.6363H2.72658C1.97489 28.6363 1.36299 28.0244 1.36299 27.2727V10.9094C1.36299 10.1577 1.97489 9.54578 2.72658 9.54578H25.908C26.6597 9.54578 27.2716 10.1577 27.2716 10.9094V15.0002H23.1808C20.9249 15.0002 19.0899 16.8352 19.0899 19.0911C19.0899 21.3469 20.9249 23.1819 23.1808 23.1819H27.2716V27.2727ZM28.6353 21.1365C28.6353 21.5126 28.3297 21.8183 27.9535 21.8183H23.1808C21.6767 21.8183 20.4535 20.5952 20.4535 19.0911C20.4535 17.587 21.6766 16.3638 23.1808 16.3638H27.9535C28.3296 16.3638 28.6353 16.6694 28.6353 17.0456V21.1365Z" />
<path d="M23.179 17.7266C22.4273 17.7266 21.8154 18.3385 21.8154 19.0902C21.8154 19.8418 22.4273 20.4537 23.179 20.4537C23.9307 20.4537 24.5426 19.8418 24.5426 19.0902C24.5426 18.3385 23.9307 17.7266 23.179 17.7266Z"/>
</g>
<defs>
<clipPath id="clip0">
<rect width="30" height="30" fill="white"/>
</clipPath>
</defs>
</svg>
