<svg width="40" height="40" viewBox="0 0 40 40" fill="none" xmlns="http://www.w3.org/2000/svg">
<path d="M20 37.5C15.3587 37.5 10.9075 35.6563 7.62563 32.3744C4.34374 29.0925 2.5 24.6413 2.5 20C2.5 15.3587 4.34374 10.9075 7.62563 7.62563C10.9075 4.34374 15.3587 2.5 20 2.5C24.6413 2.5 29.0925 4.34374 32.3744 7.62563C35.6563 10.9075 37.5 15.3587 37.5 20C37.5 24.6413 35.6563 29.0925 32.3744 32.3744C29.0925 35.6563 24.6413 37.5 20 37.5ZM20 40C25.3043 40 30.3914 37.8929 34.1421 34.1421C37.8929 30.3914 40 25.3043 40 20C40 14.6957 37.8929 9.60859 34.1421 5.85786C30.3914 2.10714 25.3043 0 20 0C14.6957 0 9.60859 2.10714 5.85786 5.85786C2.10714 9.60859 0 14.6957 0 20C0 25.3043 2.10714 30.3914 5.85786 34.1421C9.60859 37.8929 14.6957 40 20 40Z" fill="white"/>
<path d="M15.6775 12.6377C15.882 12.5324 16.1115 12.4856 16.3409 12.5023C16.5702 12.5191 16.7905 12.5988 16.9775 12.7327L25.7275 18.9827C25.8895 19.0983 26.0216 19.251 26.1127 19.428C26.2039 19.605 26.2514 19.8011 26.2514 20.0002C26.2514 20.1993 26.2039 20.3955 26.1127 20.5724C26.0216 20.7494 25.8895 20.9021 25.7275 21.0177L16.9775 27.2677C16.7906 27.4015 16.5704 27.4811 16.3412 27.4979C16.1119 27.5147 15.8825 27.4679 15.6781 27.3627C15.4737 27.2576 15.3023 27.0981 15.1826 26.9018C15.063 26.7055 14.9998 26.4801 15 26.2502V13.7502C14.9998 13.5204 15.0629 13.295 15.1824 13.0987C15.3019 12.9025 15.4732 12.743 15.6775 12.6377Z" fill="white"/>
</svg>
